<svg xmlns="http://www.w3.org/2000/svg" xmlns:xlink="http://www.w3.org/1999/xlink" width="500" zoomAndPan="magnify" viewBox="0 0 375 374.999991" height="500" preserveAspectRatio="xMidYMid meet" version="1.0"><metadata><ContainsAiGeneratedContent>Yes</ContainsAiGeneratedContent></metadata><defs><clipPath id="0fe1e6893f"><path d="M 42 48.300781 L 189 48.300781 L 189 204 L 42 204 Z M 42 48.300781 " clip-rule="nonzero"/></clipPath><clipPath id="49697c7ff0"><path d="M 42 48.300781 L 189 48.300781 L 189 204 L 42 204 Z M 42 48.300781 " clip-rule="nonzero"/></clipPath></defs><rect x="-37.5" width="450" fill="#ffffff" y="-37.499999" height="449.999989" fill-opacity="1"/><rect x="-37.5" width="450" fill="#ffffff" y="-37.499999" height="449.999989" fill-opacity="1"/><path fill="#000000" d="M 337.664062 110.691406 C 337.277344 110.050781 336.773438 109.636719 336.210938 109.410156 C 333.199219 105.242188 327.566406 104.570312 322.074219 105.160156 C 315.722656 105.84375 308.96875 108.308594 302.648438 106.257812 C 296.53125 104.292969 291.269531 100.496094 285.171875 98.515625 C 265.488281 92.105469 243.382812 96.75 226.9375 109.15625 C 210.125 121.855469 199.742188 141.792969 198.28125 162.875 C 197.621094 172.351562 198.320312 184.074219 205.453125 191.339844 C 209.375 195.316406 213.699219 198.746094 218.707031 201.300781 C 223.835938 203.941406 229.929688 204.574219 234.3125 208.46875 C 234.898438 208.992188 235.5 209.1875 236.0625 209.167969 C 247.847656 217.539062 252.488281 232.578125 268.6875 235.308594 C 284.648438 237.992188 301.628906 234.570312 315.199219 225.8125 C 329.175781 216.789062 339.796875 199.289062 343.972656 183.414062 C 348.902344 164.71875 342.085938 148.980469 339.171875 130.691406 C 342.925781 124.566406 341.058594 116.621094 337.664062 110.691406 " fill-opacity="1" fill-rule="nonzero"/><path fill="#000000" d="M 221.363281 224.789062 C 205.917969 211.152344 184.234375 204.851562 164.09375 209.730469 C 157.890625 211.238281 152.351562 214.613281 146.109375 216.109375 C 139.636719 217.660156 133.097656 214.691406 126.828125 213.527344 C 121.375 212.519531 115.726562 212.777344 112.40625 216.691406 C 111.824219 216.859375 111.28125 217.234375 110.855469 217.847656 C 107.011719 223.484375 104.542969 231.285156 107.804688 237.675781 C 103.496094 255.699219 95.496094 270.855469 98.992188 289.886719 C 101.945312 306.027344 111.179688 324.296875 124.417969 334.375 C 137.277344 344.117188 153.96875 348.832031 170.082031 347.371094 C 186.449219 345.882812 192.226562 331.25 204.59375 323.796875 C 205.15625 323.875 205.777344 323.71875 206.398438 323.253906 C 211.082031 319.683594 217.1875 319.527344 222.511719 317.277344 C 227.714844 315.109375 232.300781 312.03125 236.507812 308.34375 C 244.152344 301.660156 245.753906 290.035156 245.820312 280.519531 C 245.980469 259.398438 237.167969 238.71875 221.363281 224.789062 " fill-opacity="1" fill-rule="nonzero"/><g clip-path="url(#0fe1e6893f)"><path fill="#000000" d="M 104.96875 202.945312 C 110.351562 201.417969 115.4375 199.25 120.089844 196.113281 C 124.871094 192.851562 128.339844 187.8125 133.878906 185.859375 C 134.609375 185.582031 135.066406 185.160156 135.3125 184.636719 C 148.339844 178.335938 163.769531 181.460938 173.921875 168.574219 C 183.9375 155.882812 189.066406 139.347656 187.859375 123.285156 C 186.617188 106.699219 176.292969 89 164.351562 77.75 C 150.257812 64.46875 133.179688 62.898438 115.683594 56.699219 C 112.089844 50.476562 104.21875 48.304688 97.382812 48.464844 C 96.621094 48.484375 96.019531 48.742188 95.554688 49.125 C 90.449219 49.765625 87.148438 54.359375 85.035156 59.46875 C 82.605469 65.363281 81.519531 72.453125 76.707031 77.03125 C 72.046875 81.449219 66.207031 84.238281 61.546875 88.617188 C 46.484375 102.804688 39.964844 124.410156 43.007812 144.761719 C 46.117188 165.566406 58.671875 184.210938 76.511719 195.582031 C 84.53125 200.699219 95.191406 205.71875 104.96875 202.945312 " fill-opacity="1" fill-rule="nonzero"/></g><path fill="#ecc14e" d="M 271.234375 143.902344 L 271.257812 143.921875 L 271.214844 143.921875 Z M 271.234375 143.902344 " fill-opacity="1" fill-rule="nonzero"/><path fill="#ecc14e" d="M 168.371094 239.667969 C 168.875 239.015625 164.53125 234.363281 157.675781 230.25 C 154.199219 228.277344 150.742188 227.015625 148.0625 226.53125 C 145.484375 226.148438 143.875 226.335938 143.777344 226.75 C 143.660156 227.234375 145.210938 227.855469 147.519531 228.78125 C 149.714844 229.746094 152.765625 231.226562 156.023438 233.082031 C 162.484375 236.957031 167.789062 240.445312 168.371094 239.667969 Z M 185.507812 270.351562 C 185.804688 270.175781 185.550781 269.148438 184.90625 267.464844 C 184.273438 265.757812 183.316406 263.292969 181.746094 260.316406 C 180.964844 258.816406 179.976562 257.25 178.632812 255.523438 C 178.308594 255.117188 178.003906 254.78125 177.667969 254.398438 L 177.164062 253.855469 L 177.042969 253.699219 L 176.816406 253.492188 L 176.519531 253.214844 C 175.710938 252.515625 174.890625 251.785156 174.0625 251.027344 C 172.351562 249.65625 170.484375 248.234375 168.757812 246.90625 C 167.867188 246.265625 166.96875 245.464844 166.039062 244.667969 L 164.796875 243.621094 L 163.484375 242.308594 C 159.886719 238.78125 155.847656 235.484375 151.34375 233.800781 C 146.808594 232.09375 142.632812 232.132812 139.371094 232.230469 C 136.121094 232.359375 133.542969 232.460938 131.855469 232.359375 C 130.066406 232.292969 128.980469 232.210938 128.910156 232.558594 C 128.832031 232.875 129.621094 233.535156 131.410156 234.203125 C 133.277344 234.964844 135.972656 235.367188 139.234375 235.703125 C 140.84375 235.890625 142.589844 236.027344 144.339844 236.375 C 144.726562 236.453125 145.308594 236.511719 145.566406 236.628906 C 146.046875 236.75 146.53125 236.875 147.015625 237.015625 C 148.082031 237.25 148.765625 237.675781 149.652344 238 C 153.171875 239.558594 156.566406 242.410156 160.046875 245.808594 L 161.347656 247.09375 L 161.417969 247.171875 L 161.65625 247.40625 L 161.832031 247.535156 L 162.199219 247.832031 L 162.898438 248.414062 C 163.828125 249.183594 164.71875 249.941406 165.753906 250.640625 C 167.652344 252.011719 169.496094 253.332031 171.265625 254.597656 C 172.074219 255.238281 172.855469 255.839844 173.636719 256.429688 L 173.921875 256.648438 L 174.003906 256.707031 L 174.023438 256.746094 L 174.042969 256.746094 L 174.121094 256.824219 L 174.664062 257.328125 C 175.007812 257.671875 175.375 258.007812 175.691406 258.332031 C 176.796875 259.535156 177.882812 260.855469 178.792969 262.148438 C 180.621094 264.703125 182.070312 266.960938 183.257812 268.390625 C 184.421875 269.839844 185.242188 270.539062 185.507812 270.351562 Z M 196.847656 305.230469 C 197.667969 305.269531 198.714844 298.21875 196.988281 289.589844 C 196.070312 285.3125 194.558594 281.582031 193.105469 279.050781 C 191.644531 276.625 190.429688 275.332031 190.054688 275.519531 C 189.628906 275.738281 190.132812 277.441406 191.019531 280.054688 C 191.839844 282.640625 192.90625 286.199219 193.777344 290.25 C 195.40625 298.367188 195.859375 305.230469 196.847656 305.230469 Z M 205.078125 295.113281 C 205.292969 292.84375 205.332031 289.628906 204.632812 286.101562 C 203.929688 282.597656 202.417969 279.453125 200.671875 277.6875 C 198.84375 275.835938 197.429688 275.539062 197.15625 275.855469 C 196.828125 276.199219 197.894531 277.34375 198.8125 279.089844 C 199.839844 280.875 200.789062 283.566406 201.433594 286.761719 C 202.074219 289.957031 202.398438 292.980469 202.746094 295.171875 C 203.121094 297.378906 203.507812 298.78125 203.949219 298.78125 C 204.394531 298.78125 204.828125 297.398438 205.078125 295.113281 Z M 239.539062 273.871094 C 239.578125 276.238281 239.480469 278.992188 239.007812 281.957031 C 238.394531 286.078125 237.148438 289.628906 235.765625 291.917969 C 234.511719 294.164062 233.070312 295.496094 233.40625 295.871094 C 233.632812 296.15625 235.441406 295.695312 237.632812 293.289062 C 238.058594 292.824219 238.472656 292.28125 238.859375 291.699219 C 237.265625 297.863281 233.988281 303.34375 228.296875 307.535156 C 221 312.878906 211.617188 312.734375 204.433594 317.554688 C 204.246094 317.554688 204.050781 317.59375 203.851562 317.632812 C 205.777344 314.003906 206.460938 310.613281 206.5 308.246094 C 206.5 307.59375 206.480469 307.011719 206.441406 306.511719 C 206.359375 306.007812 206.261719 305.59375 206.164062 305.25 C 205.976562 304.589844 205.777344 304.261719 205.582031 304.261719 C 205.375 304.28125 205.175781 304.628906 204.976562 305.25 C 204.890625 305.574219 204.789062 305.9375 204.691406 306.390625 C 204.535156 306.835938 204.375 307.339844 204.226562 307.902344 C 203.527344 310.128906 202.261719 313.253906 199.722656 316.507812 C 197.273438 319.820312 193.609375 323.273438 189.007812 326.171875 C 187.800781 326.910156 186.714844 327.53125 185.390625 328.175781 L 184.34375 328.65625 L 184.097656 328.777344 L 184.078125 328.796875 L 184.019531 328.816406 L 183.476562 329.023438 C 182.734375 329.316406 182.003906 329.605469 181.261719 329.898438 C 179.820312 330.441406 178.367188 331.003906 176.894531 331.566406 C 175.492188 331.910156 174.40625 332.492188 172.597656 332.671875 L 171.355469 332.878906 L 170.742188 332.976562 L 170.445312 332.976562 C 169.695312 332.9375 168.933594 332.917969 168.175781 332.898438 C 167.421875 332.898438 166.683594 332.878906 165.921875 332.859375 C 165.191406 332.75 164.429688 332.652344 163.691406 332.53125 C 160.707031 332.238281 157.871094 331.429688 155.136719 330.828125 C 149.734375 329.238281 144.863281 327.574219 140.941406 325.789062 C 133.117188 322.453125 128.457031 319.359375 127.933594 320.089844 C 127.507812 320.652344 131.105469 324.878906 139.054688 329.515625 C 142.917969 331.851562 147.894531 334.019531 153.574219 336.042969 C 156.488281 336.832031 159.523438 337.828125 162.859375 338.25 C 163.691406 338.390625 164.53125 338.515625 165.359375 338.65625 C 166.238281 338.695312 167.109375 338.734375 167.996094 338.753906 C 168.875 338.792969 169.765625 338.8125 170.683594 338.851562 L 171.089844 338.851562 L 171.472656 338.8125 L 171.632812 338.792969 L 173.5 338.496094 C 175.070312 338.359375 177.042969 337.628906 178.8125 337.085938 C 180.441406 336.484375 182.003906 335.84375 183.453125 335.222656 C 180.699219 337.492188 177.6875 339.433594 174.042969 340.667969 C 159.925781 345.480469 141.21875 338.953125 129.542969 331.003906 C 116.167969 321.894531 108.445312 304.507812 104.820312 289.246094 C 107.28125 293.5625 110.410156 296.855469 113.296875 299.125 C 116.425781 301.609375 119.28125 303.019531 121.277344 303.90625 C 123.269531 304.6875 124.496094 304.941406 124.695312 304.589844 C 124.910156 304.242188 124.089844 303.304688 122.441406 301.957031 C 120.929688 300.515625 118.597656 298.660156 116.109375 296.058594 C 113.628906 293.445312 111.082031 290.09375 109.1875 285.933594 C 108.308594 283.8125 107.554688 281.542969 107.050781 279.089844 C 106.597656 276.625 106.292969 274.03125 106.292969 271.320312 C 106.234375 270.660156 106.351562 269.957031 106.351562 269.296875 L 106.507812 268.292969 L 106.734375 267.789062 L 107.21875 267.671875 L 107.21875 267.613281 C 107.21875 267.484375 106.734375 267.789062 106.734375 267.75 L 106.273438 267.691406 L 106.292969 267.445312 C 106.371094 266.742188 106.449219 266.042969 106.507812 265.363281 C 106.617188 264.820312 106.734375 264.277344 106.855469 263.734375 C 107.4375 261.4375 108.367188 259.152344 109.363281 256.972656 C 111.378906 252.613281 113.589844 248.601562 114.964844 244.902344 C 116.425781 241.226562 116.949219 237.882812 116.753906 235.625 C 116.730469 234.480469 116.464844 233.621094 116.269531 233.0625 C 116.050781 232.5 115.84375 232.230469 115.625 232.253906 C 115.4375 232.273438 115.242188 232.578125 115.0625 233.121094 C 114.894531 233.664062 114.796875 234.441406 114.480469 235.40625 C 114.292969 236.128906 114.015625 236.957031 113.671875 237.871094 C 113.671875 237.792969 113.671875 237.714844 113.671875 237.65625 C 113.796875 237.035156 113.730469 236.335938 113.296875 235.625 C 110.933594 231.730469 112.308594 226.996094 114.441406 223.140625 C 115.179688 222.855469 115.824219 222.3125 116.167969 221.394531 C 117.550781 217.816406 122.90625 218.28125 128.230469 219.464844 C 128.773438 219.867188 129.316406 220.273438 129.898438 220.714844 C 132.28125 222.597656 134.828125 224.226562 136.960938 224.847656 C 139.175781 225.527344 140.4375 225.191406 140.558594 224.808594 C 140.683594 224.34375 139.390625 223.761719 137.929688 222.757812 C 137.40625 222.421875 136.824219 221.996094 136.21875 221.535156 C 137.40625 221.820312 138.433594 222.054688 139.175781 222.097656 C 148.101562 222.65625 155.058594 219.019531 163.226562 216.070312 C 163.460938 215.992188 163.691406 215.933594 163.925781 215.855469 C 162.820312 216.574219 161.832031 217.3125 160.992188 218.003906 C 158.820312 220.054688 157.753906 221.574219 158.019531 221.898438 C 158.316406 222.292969 159.964844 221.355469 162.457031 219.828125 C 164.914062 218.488281 168.351562 216.691406 172.460938 215.429688 C 175.355469 214.632812 178.109375 214.089844 180.5 213.664062 C 193.875 214.40625 207.121094 220.605469 217.253906 228.898438 C 230.976562 240.140625 237.574219 256.707031 239.539062 273.871094 " fill-opacity="1" fill-rule="nonzero"/><path fill="#ecc14e" d="M 86.585938 85.105469 C 87.050781 82.648438 87.367188 81.023438 86.921875 80.867188 C 86.507812 80.726562 85.480469 81.96875 84.414062 84.335938 C 83.328125 86.851562 82.507812 90.421875 82.28125 94.414062 C 82.003906 102.382812 83.542969 108.574219 84.375 108.503906 C 85.339844 108.425781 85.292969 102.085938 85.558594 94.5625 C 85.777344 90.824219 86.199219 87.453125 86.585938 85.105469 Z M 100.800781 139.5625 C 101.105469 139.425781 100.957031 138.363281 100.386719 136.597656 C 99.8125 134.832031 98.707031 132.394531 97.539062 129.46875 C 96.9375 128.019531 96.394531 126.382812 95.980469 124.792969 C 95.871094 124.371094 95.714844 123.867188 95.632812 123.382812 L 95.316406 122.683594 L 94.972656 122.527344 L 95.167969 122.507812 L 95.167969 122.566406 L 95.316406 122.585938 C 95.4375 122.625 95.574219 122.703125 95.574219 122.625 L 95.574219 122.605469 L 95.316406 122.585938 C 95.25 122.546875 95.191406 122.507812 95.167969 122.507812 L 95.191406 122.4375 L 95.59375 122.023438 C 95.515625 121.054688 95.417969 120.070312 95.335938 119.046875 C 95.25 116.886719 95.128906 114.628906 95.03125 112.28125 C 94.992188 111.039062 94.832031 109.875 94.707031 108.671875 L 94.605469 107.765625 L 94.546875 107.320312 L 94.527344 107.085938 L 94.46875 106.757812 L 94.449219 106.660156 L 94.082031 104.875 C 93.105469 100.113281 92.550781 95.707031 93.164062 91.910156 C 93.382812 91.003906 93.402344 90.203125 93.785156 89.179688 C 93.925781 88.695312 94.082031 88.210938 94.230469 87.75 C 94.269531 87.472656 94.546875 86.949219 94.6875 86.566406 C 95.355469 84.9375 96.175781 83.390625 96.917969 81.949219 C 98.410156 79.023438 99.535156 76.546875 99.921875 74.566406 C 100.316406 72.710938 100.199219 71.683594 99.902344 71.585938 C 99.554688 71.449219 99.03125 72.414062 98.125 73.945312 C 97.285156 75.402344 95.792969 77.511719 93.925781 80.144531 C 92.058594 82.828125 89.757812 86.308594 88.71875 91.042969 C 87.671875 95.746094 88.253906 100.902344 89.261719 105.820312 L 89.636719 107.667969 L 89.847656 109.273438 C 90.003906 110.476562 90.179688 111.660156 90.242188 112.765625 C 90.410156 114.933594 90.585938 117.261719 90.824219 119.449219 C 90.992188 120.554688 91.167969 121.636719 91.328125 122.683594 L 91.386719 123.085938 L 91.445312 123.402344 L 91.691406 124.289062 C 91.832031 124.773438 91.929688 125.238281 92.097656 125.730469 C 92.820312 127.78125 93.597656 129.488281 94.429688 130.9375 C 96.078125 133.863281 97.621094 135.996094 98.707031 137.472656 C 99.78125 138.941406 100.484375 139.703125 100.800781 139.5625 Z M 114.636719 170.46875 C 114.894531 170.101562 113.9375 169.015625 112.289062 167.507812 C 110.617188 166.011719 108.265625 164.078125 105.9375 161.808594 C 103.59375 159.542969 101.847656 157.273438 100.917969 155.429688 C 99.941406 153.742188 99.574219 152.214844 99.089844 152.292969 C 98.707031 152.351562 98.152344 153.714844 98.734375 156.226562 C 99.25 158.675781 101.046875 161.652344 103.632812 164.15625 C 106.210938 166.652344 108.929688 168.355469 110.964844 169.402344 C 113.007812 170.457031 114.402344 170.859375 114.636719 170.46875 Z M 123.953125 168.03125 C 124.476562 167.214844 118.945312 163.101562 113.027344 157.3125 C 110.09375 154.382812 107.683594 151.535156 105.984375 149.464844 C 104.257812 147.296875 103.089844 145.914062 102.675781 146.171875 C 102.3125 146.378906 102.734375 148.09375 103.980469 150.648438 C 105.324219 153.242188 107.625 156.535156 110.71875 159.640625 C 117.027344 165.785156 123.527344 168.75 123.953125 168.03125 Z M 182.25 125.75 C 182.554688 139.8125 177.863281 159.039062 166.160156 168.238281 C 163.105469 170.625 159.847656 172.09375 156.449219 173.167969 C 157.753906 172.269531 159.125 171.324219 160.527344 170.300781 C 161.921875 169.117188 163.628906 167.835938 164.609375 166.589844 L 165.457031 165.664062 L 165.863281 165.203125 L 165.980469 165.082031 L 166.21875 164.796875 L 166.257812 164.71875 L 166.425781 164.421875 C 166.890625 163.671875 167.363281 162.894531 167.828125 162.136719 C 168.273438 161.386719 168.71875 160.625 169.164062 159.886719 C 169.519531 159.097656 169.84375 158.339844 170.199219 157.570312 C 171.652344 154.542969 172.460938 151.464844 173.398438 148.585938 C 174.8125 142.738281 175.691406 137.414062 175.808594 132.878906 C 176.253906 123.6875 174.664062 118.382812 173.960938 118.445312 C 173.054688 118.453125 173.121094 124.082031 171.652344 132.433594 C 171.027344 136.695312 169.765625 141.675781 168.175781 147.058594 C 167.1875 149.679688 166.316406 152.511719 164.933594 155.144531 C 164.628906 155.824219 164.3125 156.515625 163.984375 157.195312 C 163.589844 157.835938 163.207031 158.476562 162.820312 159.117188 C 162.414062 159.757812 162.019531 160.398438 161.617188 161.050781 L 161.476562 161.285156 L 161.050781 161.75 L 160.222656 162.675781 C 159.078125 164.097656 157.992188 164.699219 156.933594 165.664062 C 155.660156 166.613281 154.394531 167.527344 153.152344 168.414062 C 152.507812 168.878906 151.847656 169.351562 151.214844 169.796875 L 150.742188 170.140625 L 150.679688 170.179688 L 150.660156 170.179688 L 150.414062 170.339844 L 149.445312 170.960938 C 148.203125 171.691406 147.097656 172.269531 145.8125 172.871094 C 140.863281 175.140625 135.953125 176.34375 131.855469 176.601562 C 127.726562 176.945312 124.417969 176.304688 122.164062 175.683594 C 121.601562 175.503906 121.097656 175.359375 120.652344 175.238281 C 120.230469 175.082031 119.863281 174.945312 119.527344 174.855469 C 118.90625 174.675781 118.5 174.65625 118.382812 174.835938 C 118.242188 174.984375 118.421875 175.339844 118.886719 175.859375 C 119.121094 176.105469 119.417969 176.421875 119.804688 176.769531 C 120.1875 177.0625 120.671875 177.390625 121.214844 177.753906 C 123.222656 179.015625 126.460938 180.296875 130.550781 180.664062 C 130.402344 180.800781 130.265625 180.957031 130.144531 181.105469 C 122.183594 184.476562 117.214844 192.425781 108.730469 195.621094 C 102.132812 198.125 95.734375 197.867188 89.699219 195.835938 C 90.410156 195.835938 91.089844 195.777344 91.691406 195.679688 C 94.914062 195.15625 96.296875 193.90625 96.175781 193.550781 C 96.039062 193.066406 94.140625 193.53125 91.574219 193.371094 C 88.898438 193.285156 85.234375 192.40625 81.421875 190.660156 C 78.683594 189.4375 76.304688 188.007812 74.339844 186.6875 C 60.984375 175.703125 50.652344 161.167969 48.695312 143.558594 C 47.253906 130.550781 49.257812 116.097656 55.9375 104.492188 C 57.566406 102.707031 59.53125 100.703125 61.785156 98.734375 C 65.082031 95.960938 68.460938 94.058594 70.921875 92.707031 C 73.558594 91.464844 75.246094 90.597656 75.097656 90.144531 C 74.960938 89.738281 73.09375 89.820312 70.179688 90.519531 C 69.152344 90.824219 67.988281 91.25 66.792969 91.789062 C 66.980469 91.644531 67.136719 91.484375 67.355469 91.328125 C 74.277344 86.082031 81.113281 82.265625 85.519531 74.476562 C 85.863281 73.824219 86.242188 72.859375 86.644531 71.695312 C 86.703125 72.453125 86.746094 73.175781 86.746094 73.796875 C 86.804688 75.582031 86.585938 76.96875 87.050781 77.109375 C 87.445312 77.226562 88.394531 76.347656 89.035156 74.121094 C 89.679688 71.992188 89.679688 68.984375 89.421875 65.964844 C 89.363281 65.226562 89.300781 64.546875 89.261719 63.886719 C 91.167969 58.777344 93.699219 54.046875 97.441406 54.84375 C 98.390625 55.03125 99.230469 54.804688 99.863281 54.339844 C 104.257812 54.648438 108.988281 56.078125 110.964844 60.167969 C 111.339844 60.929688 111.882812 61.371094 112.484375 61.589844 C 112.542969 61.617188 112.582031 61.675781 112.664062 61.714844 C 111.703125 61.507812 110.855469 61.273438 110.152344 61.046875 C 109.167969 60.789062 108.464844 60.445312 107.902344 60.304688 C 107.359375 60.148438 106.992188 60.128906 106.855469 60.304688 C 106.734375 60.464844 106.835938 60.769531 107.199219 61.253906 C 107.574219 61.738281 108.140625 62.4375 109.085938 63.078125 C 110.875 64.46875 113.976562 65.847656 117.839844 66.648438 C 121.699219 67.496094 126.304688 67.820312 131.066406 68.5 C 133.40625 68.855469 135.855469 69.339844 138.105469 70.109375 C 138.609375 70.304688 139.132812 70.503906 139.65625 70.691406 C 140.261719 71.003906 140.882812 71.332031 141.503906 71.644531 L 141.742188 71.753906 L 141.722656 71.851562 C 141.761719 71.871094 141.386719 71.773438 141.523438 71.851562 L 141.542969 71.851562 L 141.386719 72.207031 L 141.664062 72.050781 L 142.167969 72.207031 L 143.054688 72.660156 C 143.636719 73.015625 144.242188 73.332031 144.785156 73.738281 C 147.074219 75.226562 149.070312 76.890625 150.898438 78.617188 C 152.6875 80.363281 154.179688 82.234375 155.480469 84.121094 C 157.929688 87.976562 159.382812 91.949219 160.222656 95.4375 C 161.050781 98.949219 161.347656 101.90625 161.714844 103.96875 C 161.960938 106.078125 162.296875 107.261719 162.703125 107.28125 C 163.105469 107.300781 163.5625 106.15625 164.007812 104.058594 C 164.351562 101.886719 164.699219 98.734375 164.332031 94.777344 C 163.984375 91.101562 162.917969 86.703125 160.628906 82.285156 C 171.472656 93.632812 181.882812 109.589844 182.25 125.75 " fill-opacity="1" fill-rule="nonzero"/><path fill="#ecc14e" d="M 245.257812 165.023438 C 246.316406 163.359375 247.453125 162.3125 247.164062 161.929688 C 246.925781 161.613281 245.476562 161.789062 243.539062 163.496094 C 241.632812 165.121094 239.886719 168.128906 238.917969 171.589844 C 237.957031 175.042969 237.75 178.246094 237.8125 180.523438 C 237.871094 182.8125 238.175781 184.230469 238.621094 184.269531 C 239.085938 184.3125 239.578125 182.949219 240.101562 180.78125 C 240.644531 178.613281 241.207031 175.625 242.078125 172.488281 C 242.945312 169.351562 244.113281 166.730469 245.257812 165.023438 Z M 252.953125 166.589844 C 254.058594 164.058594 254.703125 162.390625 254.265625 162.136719 C 253.902344 161.929688 252.597656 163.101562 250.949219 165.4375 C 249.316406 167.835938 247.53125 171.441406 246.265625 175.625 C 243.90625 184.113281 244.410156 191.222656 245.21875 191.242188 C 246.195312 191.320312 247.164062 184.5 249.417969 176.539062 C 250.601562 172.585938 251.957031 169.097656 252.953125 166.589844 Z M 300.257812 118.789062 C 302.648438 118.03125 304.21875 117.527344 304.136719 117.042969 C 304.078125 116.640625 302.488281 116.3125 299.890625 116.5 C 297.175781 116.777344 293.636719 117.761719 290.023438 119.46875 C 282.882812 123.046875 278.160156 127.355469 278.632812 128.046875 C 279.179688 128.867188 284.710938 125.789062 291.445312 122.417969 C 294.863281 120.820312 298.003906 119.585938 300.257812 118.789062 Z M 315.921875 125.433594 C 317.75 124.890625 318.578125 124.289062 318.539062 123.984375 C 318.480469 123.609375 317.375 123.609375 315.617188 123.542969 C 313.925781 123.523438 311.359375 123.226562 308.136719 122.859375 C 304.898438 122.484375 300.71875 122.140625 296.058594 123.5 C 291.445312 124.832031 287.167969 127.820312 283.328125 131.054688 L 281.894531 132.277344 L 280.570312 133.222656 C 279.601562 133.925781 278.632812 134.664062 277.695312 135.246094 C 275.859375 136.417969 273.914062 137.699219 272.105469 138.941406 C 271.195312 139.625 270.316406 140.304688 269.488281 140.933594 L 269.160156 141.191406 L 268.925781 141.386719 L 268.785156 141.515625 L 268.242188 142.019531 C 267.878906 142.375 267.53125 142.699219 267.175781 143.066406 C 265.726562 144.683594 264.597656 146.191406 263.71875 147.621094 C 261.933594 150.46875 260.796875 152.835938 260.015625 154.484375 C 259.234375 156.128906 258.910156 157.117188 259.1875 157.332031 C 259.453125 157.53125 260.300781 156.890625 261.585938 155.527344 C 262.871094 154.195312 264.460938 152.046875 266.496094 149.621094 C 267.492188 148.398438 268.660156 147.117188 269.832031 145.992188 C 270.1875 145.707031 270.515625 145.324219 270.902344 145.007812 L 271.375 144.347656 L 271.296875 143.960938 L 271.5625 144.21875 L 272.105469 144.367188 C 272.925781 143.824219 273.753906 143.28125 274.613281 142.699219 C 276.453125 141.59375 278.398438 140.414062 280.414062 139.199219 C 281.480469 138.578125 282.4375 137.878906 283.425781 137.179688 L 284.1875 136.65625 L 284.550781 136.410156 L 284.75 136.269531 L 284.996094 136.074219 L 285.074219 135.996094 L 286.476562 134.8125 C 290.179688 131.675781 293.816406 129.101562 297.421875 127.820312 C 298.332031 127.5625 299.050781 127.199219 300.136719 127.042969 C 300.621094 126.941406 301.125 126.855469 301.621094 126.753906 C 301.867188 126.675781 302.449219 126.65625 302.855469 126.597656 C 304.621094 126.382812 306.371094 126.382812 307.980469 126.332031 C 311.261719 126.234375 313.996094 126.015625 315.921875 125.433594 Z M 338.402344 160.46875 L 338.421875 160.726562 L 338.324219 160.765625 C 338.324219 160.804688 338.226562 160.429688 338.226562 160.585938 L 338.226562 160.605469 L 337.839844 160.625 L 338.125 160.785156 L 338.226562 161.304688 L 338.246094 162.332031 C 338.207031 162.992188 338.226562 163.691406 338.148438 164.34375 C 337.917969 167.066406 337.414062 169.617188 336.773438 172.042969 C 336.09375 174.441406 335.152344 176.648438 334.105469 178.691406 C 331.914062 182.683594 329.097656 185.859375 326.421875 188.265625 C 323.746094 190.660156 321.277344 192.347656 319.644531 193.648438 C 317.917969 194.890625 317.027344 195.738281 317.226562 196.113281 C 317.394531 196.480469 318.617188 196.320312 320.683594 195.699219 C 322.738281 194.96875 325.679688 193.765625 328.988281 191.539062 C 332.050781 189.476562 335.410156 186.441406 338.207031 182.328125 C 333.414062 197.265625 324.386719 214.011719 310.351562 222.078125 C 298.121094 229.105469 278.960938 234.183594 265.261719 228.335938 C 261.703125 226.808594 258.851562 224.648438 256.292969 222.195312 C 257.683594 222.914062 259.195312 223.664062 260.757812 224.402344 C 262.484375 225.0625 264.402344 225.929688 265.953125 226.207031 L 267.175781 226.492188 L 267.800781 226.632812 L 267.957031 226.671875 L 268.324219 226.730469 L 268.421875 226.75 L 268.746094 226.769531 C 269.644531 226.808594 270.535156 226.839844 271.425781 226.878906 C 272.304688 226.898438 273.171875 226.9375 274.050781 226.976562 C 274.902344 226.898438 275.742188 226.828125 276.570312 226.75 C 279.949219 226.59375 283.039062 225.832031 286.011719 225.25 C 291.832031 223.703125 296.9375 221.917969 300.976562 219.847656 C 309.265625 215.855469 313.1875 211.921875 312.789062 211.320312 C 312.328125 210.550781 307.4375 213.300781 299.386719 216.011719 C 295.347656 217.5 290.359375 218.78125 284.855469 219.964844 C 282.089844 220.332031 279.179688 220.933594 276.183594 221.011719 C 275.445312 221.050781 274.695312 221.109375 273.933594 221.148438 C 273.191406 221.109375 272.441406 221.070312 271.679688 221.03125 C 270.941406 220.992188 270.1875 220.953125 269.410156 220.914062 L 269.160156 220.914062 L 269.140625 220.894531 L 268.519531 220.753906 L 267.296875 220.46875 C 265.507812 220.132812 264.460938 219.484375 263.105469 219.03125 C 261.664062 218.359375 260.273438 217.679688 258.871094 217.039062 C 258.148438 216.691406 257.445312 216.335938 256.734375 215.992188 L 256.210938 215.734375 L 256.152344 215.695312 L 256.132812 215.695312 L 255.875 215.546875 L 254.890625 214.988281 C 253.625 214.246094 252.578125 213.566406 251.453125 212.738281 C 247.085938 209.484375 243.667969 205.757812 241.496094 202.277344 C 239.203125 198.824219 238.195312 195.621094 237.652344 193.34375 C 237.554688 192.78125 237.433594 192.25 237.328125 191.804688 C 237.246094 191.359375 237.1875 190.976562 237.109375 190.640625 C 236.972656 190 236.792969 189.636719 236.585938 189.617188 C 236.386719 189.597656 236.179688 189.910156 235.925781 190.5625 C 235.804688 190.878906 235.6875 191.300781 235.558594 191.785156 C 235.5 192.289062 235.421875 192.851562 235.382812 193.511719 C 235.222656 195.878906 235.648438 199.328125 237.289062 203.085938 C 237.089844 203.007812 236.890625 202.964844 236.722656 202.945312 C 229.929688 197.582031 220.574219 197.019531 213.699219 191.125 C 208.335938 186.539062 205.480469 180.820312 204.355469 174.558594 C 204.710938 175.160156 205.078125 175.742188 205.480469 176.226562 C 207.46875 178.789062 209.234375 179.390625 209.480469 179.113281 C 209.859375 178.769531 208.535156 177.328125 207.449219 175.003906 C 206.242188 172.625 205.253906 168.996094 204.957031 164.816406 C 204.730469 161.828125 204.847656 159.078125 205.058594 156.710938 C 208.316406 139.742188 216.160156 123.730469 230.71875 113.574219 C 241.457031 106.078125 255.144531 100.921875 268.539062 101.199219 C 270.878906 101.800781 273.585938 102.546875 276.402344 103.574219 C 280.414062 105.132812 283.722656 107.183594 286.0625 108.710938 C 288.433594 110.4375 290.003906 111.480469 290.320312 111.136719 C 290.605469 110.820312 289.65625 109.214844 287.632812 107.003906 C 286.882812 106.257812 285.953125 105.4375 284.886719 104.640625 C 285.113281 104.738281 285.351562 104.796875 285.558594 104.914062 C 293.5 108.464844 300.136719 112.644531 309.085938 112.765625 C 309.828125 112.765625 310.875 112.625 312.078125 112.417969 C 311.4375 112.84375 310.835938 113.207031 310.292969 113.503906 C 308.761719 114.410156 307.417969 114.894531 307.515625 115.355469 C 307.59375 115.769531 308.820312 116.175781 311.09375 115.671875 C 313.265625 115.21875 315.921875 113.769531 318.460938 112.101562 C 319.0625 111.699219 319.644531 111.324219 320.207031 110.980469 C 325.613281 110.191406 330.984375 110.132812 332.070312 113.808594 C 332.367188 114.734375 332.96875 115.335938 333.683594 115.691406 C 335.507812 119.675781 336.515625 124.527344 333.859375 128.207031 C 333.375 128.886719 333.257812 129.585938 333.335938 130.207031 C 333.335938 130.285156 333.316406 130.355469 333.316406 130.433594 C 333.039062 129.507812 332.832031 128.628906 332.695312 127.917969 C 332.457031 126.933594 332.417969 126.15625 332.289062 125.59375 C 332.152344 125.03125 331.992188 124.703125 331.785156 124.664062 C 331.585938 124.644531 331.351562 124.890625 331.105469 125.433594 C 330.847656 125.976562 330.519531 126.835938 330.402344 127.957031 C 330.035156 130.207031 330.324219 133.578125 331.46875 137.335938 C 332.574219 141.132812 334.480469 145.324219 336.171875 149.800781 C 336.980469 152.046875 337.722656 154.40625 338.125 156.75 C 338.207031 157.292969 338.285156 157.835938 338.34375 158.398438 C 338.363281 159.078125 338.382812 159.777344 338.402344 160.46875 " fill-opacity="1" fill-rule="nonzero"/><path fill="#000000" d="M 338.421875 160.726562 L 338.402344 160.46875 C 338.382812 159.777344 338.363281 159.078125 338.34375 158.398438 C 338.285156 157.835938 338.207031 157.292969 338.125 156.75 C 337.722656 154.40625 336.980469 152.046875 336.171875 149.800781 C 334.480469 145.324219 332.574219 141.132812 331.46875 137.335938 C 330.324219 133.578125 330.035156 130.207031 330.402344 127.957031 C 330.519531 126.835938 330.847656 125.976562 331.105469 125.433594 C 331.351562 124.890625 331.585938 124.644531 331.785156 124.664062 C 331.992188 124.703125 332.152344 125.03125 332.289062 125.59375 C 332.417969 126.15625 332.457031 126.933594 332.695312 127.917969 C 332.832031 128.628906 333.039062 129.507812 333.316406 130.433594 C 333.316406 130.355469 333.335938 130.285156 333.335938 130.207031 C 333.257812 129.585938 333.375 128.886719 333.859375 128.207031 C 336.515625 124.527344 335.507812 119.675781 333.683594 115.691406 C 332.96875 115.335938 332.367188 114.734375 332.070312 113.808594 C 330.984375 110.132812 325.613281 110.191406 320.207031 110.980469 C 319.644531 111.324219 319.0625 111.699219 318.460938 112.101562 C 315.921875 113.769531 313.265625 115.21875 311.09375 115.671875 C 308.820312 116.175781 307.59375 115.769531 307.515625 115.355469 C 307.417969 114.894531 308.761719 114.410156 310.292969 113.503906 C 310.835938 113.207031 311.4375 112.84375 312.078125 112.417969 C 310.875 112.625 309.828125 112.765625 309.085938 112.765625 C 300.136719 112.644531 293.5 108.464844 285.558594 104.914062 C 285.351562 104.796875 285.113281 104.738281 284.886719 104.640625 C 285.953125 105.4375 286.882812 106.257812 287.632812 107.003906 C 289.65625 109.214844 290.605469 110.820312 290.320312 111.136719 C 290.003906 111.480469 288.433594 110.4375 286.0625 108.710938 C 283.722656 107.183594 280.414062 105.132812 276.402344 103.574219 C 273.585938 102.546875 270.878906 101.800781 268.539062 101.199219 C 255.144531 100.921875 241.457031 106.078125 230.71875 113.574219 C 216.160156 123.730469 208.316406 139.742188 205.058594 156.710938 C 204.847656 159.078125 204.730469 161.828125 204.957031 164.816406 C 205.253906 168.996094 206.242188 172.625 207.449219 175.003906 C 208.535156 177.328125 209.859375 178.769531 209.480469 179.113281 C 209.234375 179.390625 207.46875 178.789062 205.480469 176.226562 C 205.078125 175.742188 204.710938 175.160156 204.355469 174.558594 C 205.480469 180.820312 208.335938 186.539062 213.699219 191.125 C 220.574219 197.019531 229.929688 197.582031 236.722656 202.945312 C 236.890625 202.964844 237.089844 203.007812 237.289062 203.085938 C 235.648438 199.328125 235.222656 195.878906 235.382812 193.511719 C 235.421875 192.851562 235.5 192.289062 235.558594 191.785156 C 235.6875 191.300781 235.804688 190.878906 235.925781 190.5625 C 236.179688 189.910156 236.386719 189.597656 236.585938 189.617188 C 236.792969 189.636719 236.972656 190 237.109375 190.640625 C 237.1875 190.976562 237.246094 191.359375 237.328125 191.804688 C 237.433594 192.25 237.554688 192.78125 237.652344 193.34375 C 238.195312 195.621094 239.203125 198.824219 241.496094 202.277344 C 243.667969 205.757812 247.085938 209.484375 251.453125 212.738281 C 252.578125 213.566406 253.625 214.246094 254.890625 214.988281 L 255.875 215.546875 L 256.132812 215.695312 L 256.152344 215.695312 L 256.210938 215.734375 L 256.734375 215.992188 C 257.445312 216.335938 258.148438 216.691406 258.871094 217.039062 C 260.273438 217.679688 261.664062 218.359375 263.105469 219.03125 C 264.460938 219.484375 265.507812 220.132812 267.296875 220.46875 L 268.519531 220.753906 L 269.140625 220.894531 L 269.160156 220.914062 L 269.410156 220.914062 C 270.1875 220.953125 270.941406 220.992188 271.679688 221.03125 C 272.441406 221.070312 273.191406 221.109375 273.933594 221.148438 C 274.695312 221.109375 275.445312 221.050781 276.183594 221.011719 C 279.179688 220.933594 282.089844 220.332031 284.855469 219.964844 C 290.359375 218.78125 295.347656 217.5 299.386719 216.011719 C 307.4375 213.300781 312.328125 210.550781 312.789062 211.320312 C 313.1875 211.921875 309.265625 215.855469 300.976562 219.847656 C 296.9375 221.917969 291.832031 223.703125 286.011719 225.25 C 283.039062 225.832031 279.949219 226.59375 276.570312 226.75 C 275.742188 226.828125 274.902344 226.898438 274.050781 226.976562 C 273.171875 226.9375 272.304688 226.898438 271.425781 226.878906 C 270.535156 226.839844 269.644531 226.808594 268.746094 226.769531 L 268.421875 226.75 L 268.324219 226.730469 L 267.957031 226.671875 L 267.800781 226.632812 L 267.175781 226.492188 L 265.953125 226.207031 C 264.402344 225.929688 262.484375 225.0625 260.757812 224.402344 C 259.195312 223.664062 257.683594 222.914062 256.292969 222.195312 C 258.851562 224.648438 261.703125 226.808594 265.261719 228.335938 C 278.960938 234.183594 298.121094 229.105469 310.351562 222.078125 C 324.386719 214.011719 333.414062 197.265625 338.207031 182.328125 C 335.410156 186.441406 332.050781 189.476562 328.988281 191.539062 C 325.679688 193.765625 322.738281 194.96875 320.683594 195.699219 C 318.617188 196.320312 317.394531 196.480469 317.226562 196.113281 C 317.027344 195.738281 317.917969 194.890625 319.644531 193.648438 C 321.277344 192.347656 323.746094 190.660156 326.421875 188.265625 C 329.097656 185.859375 331.914062 182.683594 334.105469 178.691406 C 335.152344 176.648438 336.09375 174.441406 336.773438 172.042969 C 337.414062 169.617188 337.917969 167.066406 338.148438 164.34375 C 338.226562 163.691406 338.207031 162.992188 338.246094 162.332031 L 338.226562 161.304688 L 338.125 160.785156 L 337.839844 160.625 L 338.226562 160.605469 L 338.226562 160.585938 C 338.226562 160.429688 338.324219 160.804688 338.324219 160.765625 Z M 339.171875 130.691406 C 342.085938 148.980469 348.902344 164.71875 343.972656 183.414062 C 339.796875 199.289062 329.175781 216.789062 315.199219 225.8125 C 301.628906 234.570312 284.648438 237.992188 268.6875 235.308594 C 252.480469 232.578125 247.847656 217.539062 236.0625 209.167969 C 235.5 209.1875 234.898438 208.992188 234.3125 208.46875 C 229.929688 204.574219 223.835938 203.941406 218.707031 201.300781 C 213.699219 198.746094 209.375 195.316406 205.453125 191.339844 C 198.320312 184.074219 197.621094 172.351562 198.28125 162.875 C 199.742188 141.792969 210.125 121.855469 226.9375 109.15625 C 243.382812 96.75 265.488281 92.105469 285.171875 98.515625 C 291.269531 100.496094 296.53125 104.292969 302.648438 106.257812 C 308.96875 108.308594 315.722656 105.84375 322.074219 105.160156 C 327.566406 104.570312 333.199219 105.242188 336.210938 109.410156 C 336.773438 109.636719 337.277344 110.050781 337.664062 110.691406 C 341.058594 116.621094 342.925781 124.566406 339.171875 130.691406 " fill-opacity="1" fill-rule="nonzero"/><path fill="#000000" d="M 271.277344 143.902344 L 271.257812 143.921875 L 271.234375 143.902344 L 271.214844 143.921875 L 271.257812 143.921875 L 271.296875 143.960938 L 271.375 144.347656 L 270.902344 145.007812 C 270.515625 145.324219 270.1875 145.707031 269.832031 145.992188 C 268.660156 147.117188 267.492188 148.398438 266.496094 149.621094 C 264.460938 152.046875 262.871094 154.195312 261.585938 155.527344 C 260.300781 156.890625 259.453125 157.53125 259.1875 157.332031 C 258.910156 157.117188 259.234375 156.128906 260.015625 154.484375 C 260.796875 152.835938 261.933594 150.46875 263.71875 147.621094 C 264.597656 146.191406 265.726562 144.683594 267.175781 143.066406 C 267.53125 142.699219 267.878906 142.375 268.242188 142.019531 L 268.785156 141.515625 L 268.925781 141.386719 L 269.160156 141.191406 L 269.488281 140.933594 C 270.316406 140.304688 271.195312 139.625 272.105469 138.941406 C 273.914062 137.699219 275.859375 136.417969 277.695312 135.246094 C 278.632812 134.664062 279.601562 133.925781 280.570312 133.222656 L 281.894531 132.277344 L 283.328125 131.054688 C 287.167969 127.820312 291.445312 124.832031 296.058594 123.5 C 300.71875 122.140625 304.898438 122.484375 308.136719 122.859375 C 311.359375 123.226562 313.925781 123.523438 315.617188 123.542969 C 317.375 123.609375 318.480469 123.609375 318.539062 123.984375 C 318.578125 124.289062 317.75 124.890625 315.921875 125.433594 C 313.996094 126.015625 311.261719 126.234375 307.980469 126.332031 C 306.371094 126.382812 304.621094 126.382812 302.855469 126.597656 C 302.449219 126.65625 301.867188 126.675781 301.621094 126.753906 C 301.125 126.855469 300.621094 126.941406 300.136719 127.042969 C 299.050781 127.199219 298.332031 127.5625 297.421875 127.820312 C 293.816406 129.101562 290.179688 131.675781 286.476562 134.8125 L 285.074219 135.996094 L 284.996094 136.074219 L 284.75 136.269531 L 284.550781 136.410156 L 284.1875 136.65625 L 283.425781 137.179688 C 282.4375 137.878906 281.480469 138.578125 280.414062 139.199219 C 278.398438 140.414062 276.453125 141.59375 274.613281 142.699219 C 273.753906 143.28125 272.925781 143.824219 272.105469 144.367188 L 271.5625 144.21875 L 271.296875 143.960938 L 271.277344 143.902344 " fill-opacity="1" fill-rule="nonzero"/><path fill="#000000" d="M 304.136719 117.042969 C 304.21875 117.527344 302.648438 118.03125 300.257812 118.789062 C 298.003906 119.585938 294.863281 120.820312 291.445312 122.417969 C 284.710938 125.789062 279.179688 128.867188 278.632812 128.046875 C 278.160156 127.355469 282.882812 123.046875 290.023438 119.46875 C 293.636719 117.761719 297.175781 116.777344 299.890625 116.5 C 302.488281 116.3125 304.078125 116.640625 304.136719 117.042969 " fill-opacity="1" fill-rule="nonzero"/><path fill="#000000" d="M 271.296875 143.960938 L 271.257812 143.921875 L 271.277344 143.902344 Z M 271.296875 143.960938 " fill-opacity="1" fill-rule="nonzero"/><path fill="#000000" d="M 254.265625 162.136719 C 254.703125 162.390625 254.058594 164.058594 252.953125 166.589844 C 251.957031 169.097656 250.601562 172.585938 249.417969 176.539062 C 247.164062 184.5 246.195312 191.320312 245.21875 191.242188 C 244.410156 191.222656 243.90625 184.113281 246.265625 175.625 C 247.53125 171.441406 249.316406 167.835938 250.949219 165.4375 C 252.597656 163.101562 253.902344 161.929688 254.265625 162.136719 " fill-opacity="1" fill-rule="nonzero"/><path fill="#000000" d="M 247.164062 161.929688 C 247.453125 162.3125 246.316406 163.359375 245.257812 165.023438 C 244.113281 166.730469 242.945312 169.351562 242.078125 172.488281 C 241.207031 175.625 240.644531 178.613281 240.101562 180.78125 C 239.578125 182.949219 239.085938 184.3125 238.621094 184.269531 C 238.175781 184.230469 237.871094 182.8125 237.8125 180.523438 C 237.75 178.246094 237.957031 175.042969 238.917969 171.589844 C 239.886719 168.128906 241.632812 165.121094 243.539062 163.496094 C 245.476562 161.789062 246.925781 161.613281 247.164062 161.929688 " fill-opacity="1" fill-rule="nonzero"/><path fill="#000000" d="M 239.007812 281.957031 C 239.480469 278.992188 239.578125 276.238281 239.539062 273.871094 C 237.574219 256.707031 230.976562 240.140625 217.253906 228.898438 C 207.121094 220.605469 193.875 214.40625 180.5 213.664062 C 178.109375 214.089844 175.355469 214.632812 172.460938 215.429688 C 168.351562 216.691406 164.914062 218.488281 162.457031 219.828125 C 159.964844 221.355469 158.316406 222.292969 158.019531 221.898438 C 157.753906 221.574219 158.820312 220.054688 160.992188 218.003906 C 161.832031 217.3125 162.820312 216.574219 163.925781 215.855469 C 163.691406 215.933594 163.460938 215.992188 163.226562 216.070312 C 155.058594 219.019531 148.101562 222.65625 139.175781 222.097656 C 138.433594 222.054688 137.40625 221.820312 136.21875 221.535156 C 136.824219 221.996094 137.40625 222.421875 137.929688 222.757812 C 139.390625 223.761719 140.683594 224.34375 140.558594 224.808594 C 140.4375 225.191406 139.175781 225.527344 136.960938 224.847656 C 134.828125 224.226562 132.28125 222.597656 129.898438 220.714844 C 129.316406 220.273438 128.773438 219.867188 128.230469 219.464844 C 122.90625 218.28125 117.550781 217.816406 116.167969 221.394531 C 115.824219 222.3125 115.179688 222.855469 114.441406 223.140625 C 112.308594 226.996094 110.933594 231.730469 113.296875 235.625 C 113.730469 236.335938 113.796875 237.035156 113.671875 237.65625 C 113.671875 237.714844 113.671875 237.792969 113.671875 237.871094 C 114.015625 236.957031 114.292969 236.128906 114.480469 235.40625 C 114.796875 234.441406 114.894531 233.664062 115.0625 233.121094 C 115.242188 232.578125 115.4375 232.273438 115.625 232.253906 C 115.84375 232.230469 116.050781 232.5 116.269531 233.0625 C 116.464844 233.621094 116.730469 234.480469 116.753906 235.625 C 116.949219 237.882812 116.425781 241.226562 114.964844 244.902344 C 113.589844 248.601562 111.378906 252.613281 109.363281 256.972656 C 108.367188 259.152344 107.4375 261.4375 106.855469 263.734375 C 106.734375 264.277344 106.617188 264.820312 106.507812 265.363281 C 106.449219 266.042969 106.371094 266.742188 106.292969 267.445312 L 106.273438 267.691406 L 106.734375 267.75 C 106.734375 267.789062 107.21875 267.484375 107.21875 267.613281 L 107.21875 267.671875 L 106.734375 267.789062 L 106.507812 268.292969 L 106.351562 269.296875 C 106.351562 269.957031 106.234375 270.660156 106.292969 271.320312 C 106.292969 274.03125 106.597656 276.625 107.050781 279.089844 C 107.554688 281.542969 108.308594 283.8125 109.1875 285.933594 C 111.082031 290.09375 113.628906 293.445312 116.109375 296.058594 C 118.597656 298.660156 120.929688 300.515625 122.441406 301.957031 C 124.089844 303.304688 124.910156 304.242188 124.695312 304.589844 C 124.496094 304.941406 123.269531 304.6875 121.277344 303.90625 C 119.28125 303.019531 116.425781 301.609375 113.296875 299.125 C 110.410156 296.855469 107.28125 293.5625 104.820312 289.246094 C 108.445312 304.507812 116.167969 321.894531 129.542969 331.003906 C 141.21875 338.953125 159.925781 345.480469 174.042969 340.667969 C 177.6875 339.433594 180.699219 337.492188 183.453125 335.222656 C 182.003906 335.84375 180.441406 336.484375 178.8125 337.085938 C 177.042969 337.628906 175.070312 338.359375 173.5 338.496094 L 171.632812 338.792969 L 171.472656 338.8125 L 171.089844 338.851562 L 170.683594 338.851562 C 169.765625 338.8125 168.875 338.792969 167.996094 338.753906 C 167.109375 338.734375 166.238281 338.695312 165.359375 338.65625 C 164.53125 338.515625 163.691406 338.390625 162.859375 338.25 C 159.523438 337.828125 156.488281 336.832031 153.574219 336.042969 C 147.894531 334.019531 142.917969 331.851562 139.054688 329.515625 C 131.105469 324.878906 127.507812 320.652344 127.933594 320.089844 C 128.457031 319.359375 133.117188 322.453125 140.941406 325.789062 C 144.863281 327.574219 149.734375 329.238281 155.136719 330.828125 C 157.871094 331.429688 160.707031 332.238281 163.691406 332.53125 C 164.429688 332.652344 165.191406 332.75 165.921875 332.859375 C 166.683594 332.878906 167.421875 332.898438 168.175781 332.898438 C 168.933594 332.917969 169.695312 332.9375 170.445312 332.976562 L 170.742188 332.976562 L 171.355469 332.878906 L 172.597656 332.671875 C 174.40625 332.492188 175.492188 331.910156 176.894531 331.566406 C 178.367188 331.003906 179.820312 330.441406 181.261719 329.898438 C 182.003906 329.605469 182.734375 329.316406 183.476562 329.023438 L 184.019531 328.816406 L 184.078125 328.796875 L 184.097656 328.777344 L 184.34375 328.65625 L 185.390625 328.175781 C 186.714844 327.53125 187.800781 326.910156 189.007812 326.171875 C 193.609375 323.273438 197.273438 319.820312 199.722656 316.507812 C 202.261719 313.253906 203.527344 310.128906 204.226562 307.902344 C 204.375 307.339844 204.535156 306.835938 204.691406 306.390625 C 204.789062 305.9375 204.890625 305.574219 204.976562 305.25 C 205.175781 304.628906 205.375 304.28125 205.582031 304.261719 C 205.777344 304.261719 205.976562 304.589844 206.164062 305.25 C 206.261719 305.59375 206.359375 306.007812 206.441406 306.511719 C 206.480469 307.011719 206.5 307.59375 206.5 308.246094 C 206.460938 310.613281 205.777344 314.003906 203.851562 317.632812 C 204.050781 317.59375 204.246094 317.554688 204.433594 317.554688 C 211.617188 312.734375 221 312.878906 228.296875 307.535156 C 233.988281 303.34375 237.265625 297.863281 238.859375 291.699219 C 238.472656 292.28125 238.058594 292.824219 237.632812 293.289062 C 235.441406 295.695312 233.632812 296.15625 233.40625 295.871094 C 233.070312 295.496094 234.511719 294.164062 235.765625 291.917969 C 237.148438 289.628906 238.394531 286.078125 239.007812 281.957031 Z M 221.363281 224.789062 C 237.167969 238.71875 245.980469 259.398438 245.820312 280.519531 C 245.753906 290.035156 244.152344 301.660156 236.507812 308.34375 C 232.300781 312.03125 227.714844 315.109375 222.511719 317.277344 C 217.1875 319.527344 211.082031 319.683594 206.398438 323.253906 C 205.777344 323.71875 205.15625 323.875 204.59375 323.796875 C 192.226562 331.25 186.449219 345.882812 170.082031 347.371094 C 153.96875 348.832031 137.277344 344.117188 124.417969 334.375 C 111.179688 324.296875 101.945312 306.027344 98.992188 289.886719 C 95.496094 270.855469 103.496094 255.699219 107.804688 237.675781 C 104.542969 231.285156 107.011719 223.484375 110.855469 217.847656 C 111.28125 217.234375 111.824219 216.859375 112.40625 216.691406 C 115.726562 212.777344 121.375 212.519531 126.828125 213.527344 C 133.097656 214.691406 139.636719 217.660156 146.109375 216.109375 C 152.351562 214.613281 157.890625 211.238281 164.09375 209.730469 C 184.234375 204.851562 205.917969 211.152344 221.363281 224.789062 " fill-opacity="1" fill-rule="nonzero"/><path fill="#000000" d="M 204.632812 286.101562 C 205.332031 289.628906 205.292969 292.84375 205.078125 295.113281 C 204.828125 297.398438 204.394531 298.78125 203.949219 298.78125 C 203.507812 298.78125 203.121094 297.378906 202.746094 295.171875 C 202.398438 292.980469 202.074219 289.957031 201.433594 286.761719 C 200.789062 283.566406 199.839844 280.875 198.8125 279.089844 C 197.894531 277.34375 196.828125 276.199219 197.15625 275.855469 C 197.429688 275.539062 198.84375 275.835938 200.671875 277.6875 C 202.417969 279.453125 203.929688 282.597656 204.632812 286.101562 " fill-opacity="1" fill-rule="nonzero"/><path fill="#000000" d="M 196.988281 289.589844 C 198.714844 298.21875 197.667969 305.269531 196.847656 305.230469 C 195.859375 305.230469 195.40625 298.367188 193.777344 290.25 C 192.90625 286.199219 191.839844 282.640625 191.019531 280.054688 C 190.132812 277.441406 189.628906 275.738281 190.054688 275.519531 C 190.429688 275.332031 191.644531 276.625 193.105469 279.050781 C 194.558594 281.582031 196.070312 285.3125 196.988281 289.589844 " fill-opacity="1" fill-rule="nonzero"/><g clip-path="url(#49697c7ff0)"><path fill="#000000" d="M 166.160156 168.238281 C 177.863281 159.039062 182.554688 139.8125 182.25 125.75 C 181.882812 109.589844 171.472656 93.632812 160.628906 82.285156 C 162.917969 86.703125 163.984375 91.101562 164.332031 94.777344 C 164.699219 98.734375 164.351562 101.886719 164.007812 104.058594 C 163.5625 106.15625 163.105469 107.300781 162.703125 107.28125 C 162.296875 107.261719 161.960938 106.078125 161.714844 103.96875 C 161.347656 101.90625 161.050781 98.949219 160.222656 95.4375 C 159.382812 91.949219 157.929688 87.976562 155.480469 84.121094 C 154.179688 82.234375 152.6875 80.363281 150.898438 78.617188 C 149.070312 76.890625 147.074219 75.226562 144.785156 73.738281 C 144.242188 73.332031 143.636719 73.015625 143.054688 72.660156 L 142.167969 72.207031 L 141.664062 72.050781 L 141.386719 72.207031 L 141.542969 71.851562 L 141.523438 71.851562 C 141.386719 71.773438 141.761719 71.871094 141.722656 71.851562 L 141.742188 71.753906 L 141.503906 71.644531 C 140.882812 71.332031 140.261719 71.003906 139.65625 70.691406 C 139.132812 70.503906 138.609375 70.304688 138.105469 70.109375 C 135.855469 69.339844 133.40625 68.855469 131.066406 68.5 C 126.304688 67.820312 121.699219 67.496094 117.839844 66.648438 C 113.976562 65.847656 110.875 64.46875 109.085938 63.078125 C 108.140625 62.4375 107.574219 61.738281 107.199219 61.253906 C 106.835938 60.769531 106.734375 60.464844 106.855469 60.304688 C 106.992188 60.128906 107.359375 60.148438 107.902344 60.304688 C 108.464844 60.445312 109.167969 60.789062 110.152344 61.046875 C 110.855469 61.273438 111.703125 61.507812 112.664062 61.714844 C 112.582031 61.675781 112.542969 61.617188 112.484375 61.589844 C 111.882812 61.371094 111.339844 60.929688 110.964844 60.167969 C 108.988281 56.078125 104.257812 54.648438 99.863281 54.339844 C 99.230469 54.804688 98.390625 55.03125 97.441406 54.84375 C 93.699219 54.046875 91.167969 58.777344 89.261719 63.886719 C 89.300781 64.546875 89.363281 65.226562 89.421875 65.964844 C 89.679688 68.984375 89.679688 71.992188 89.035156 74.121094 C 88.394531 76.347656 87.445312 77.226562 87.050781 77.109375 C 86.585938 76.96875 86.804688 75.582031 86.746094 73.796875 C 86.746094 73.175781 86.703125 72.453125 86.644531 71.695312 C 86.242188 72.859375 85.863281 73.824219 85.519531 74.476562 C 81.113281 82.265625 74.277344 86.082031 67.355469 91.328125 C 67.136719 91.484375 66.980469 91.644531 66.792969 91.789062 C 67.988281 91.25 69.152344 90.824219 70.179688 90.519531 C 73.09375 89.820312 74.960938 89.738281 75.097656 90.144531 C 75.246094 90.597656 73.558594 91.464844 70.921875 92.707031 C 68.460938 94.058594 65.082031 95.960938 61.785156 98.734375 C 59.53125 100.703125 57.566406 102.707031 55.9375 104.492188 C 49.257812 116.097656 47.253906 130.550781 48.695312 143.558594 C 50.652344 161.167969 60.984375 175.703125 74.339844 186.6875 C 76.304688 188.007812 78.683594 189.4375 81.421875 190.660156 C 85.234375 192.40625 88.898438 193.285156 91.574219 193.371094 C 94.140625 193.53125 96.039062 193.066406 96.175781 193.550781 C 96.296875 193.90625 94.914062 195.15625 91.691406 195.679688 C 91.089844 195.777344 90.410156 195.835938 89.699219 195.835938 C 95.734375 197.867188 102.132812 198.125 108.730469 195.621094 C 117.214844 192.425781 122.183594 184.476562 130.144531 181.105469 C 130.265625 180.957031 130.402344 180.800781 130.550781 180.664062 C 126.460938 180.296875 123.222656 179.015625 121.214844 177.753906 C 120.671875 177.390625 120.1875 177.0625 119.804688 176.769531 C 119.417969 176.421875 119.121094 176.105469 118.886719 175.859375 C 118.421875 175.339844 118.242188 174.984375 118.382812 174.835938 C 118.5 174.65625 118.90625 174.675781 119.527344 174.855469 C 119.863281 174.945312 120.230469 175.082031 120.652344 175.238281 C 121.097656 175.359375 121.601562 175.503906 122.164062 175.683594 C 124.417969 176.304688 127.726562 176.945312 131.855469 176.601562 C 135.953125 176.34375 140.863281 175.140625 145.8125 172.871094 C 147.097656 172.269531 148.203125 171.691406 149.445312 170.960938 L 150.414062 170.339844 L 150.660156 170.179688 L 150.679688 170.179688 L 150.742188 170.140625 L 151.214844 169.796875 C 151.847656 169.351562 152.507812 168.878906 153.152344 168.414062 C 154.394531 167.527344 155.660156 166.613281 156.933594 165.664062 C 157.992188 164.699219 159.078125 164.097656 160.222656 162.675781 L 161.050781 161.75 L 161.476562 161.285156 L 161.617188 161.050781 C 162.019531 160.398438 162.414062 159.757812 162.820312 159.117188 C 163.207031 158.476562 163.589844 157.835938 163.984375 157.195312 C 164.3125 156.515625 164.628906 155.824219 164.933594 155.144531 C 166.316406 152.511719 167.1875 149.679688 168.175781 147.058594 C 169.765625 141.675781 171.027344 136.695312 171.652344 132.433594 C 173.121094 124.082031 173.054688 118.453125 173.960938 118.445312 C 174.664062 118.382812 176.253906 123.6875 175.808594 132.878906 C 175.691406 137.414062 174.8125 142.738281 173.398438 148.585938 C 172.460938 151.464844 171.652344 154.542969 170.199219 157.570312 C 169.84375 158.339844 169.519531 159.097656 169.164062 159.886719 C 168.71875 160.625 168.273438 161.386719 167.828125 162.136719 C 167.363281 162.894531 166.890625 163.671875 166.425781 164.421875 L 166.257812 164.71875 L 166.21875 164.796875 L 165.980469 165.082031 L 165.863281 165.203125 L 165.457031 165.664062 L 164.609375 166.589844 C 163.628906 167.835938 161.921875 169.117188 160.527344 170.300781 C 159.125 171.324219 157.753906 172.269531 156.449219 173.167969 C 159.847656 172.09375 163.105469 170.625 166.160156 168.238281 Z M 187.859375 123.285156 C 189.066406 139.347656 183.9375 155.882812 173.921875 168.574219 C 163.769531 181.460938 148.339844 178.335938 135.3125 184.636719 C 135.066406 185.160156 134.609375 185.582031 133.878906 185.859375 C 128.339844 187.8125 124.871094 192.851562 120.089844 196.113281 C 115.4375 199.25 110.351562 201.417969 104.96875 202.945312 C 95.191406 205.71875 84.53125 200.699219 76.511719 195.582031 C 58.671875 184.210938 46.117188 165.566406 43.007812 144.761719 C 39.964844 124.410156 46.484375 102.804688 61.546875 88.617188 C 66.207031 84.238281 72.046875 81.449219 76.707031 77.03125 C 81.519531 72.453125 82.605469 65.363281 85.035156 59.46875 C 87.148438 54.359375 90.449219 49.765625 95.554688 49.125 C 96.019531 48.742188 96.621094 48.484375 97.382812 48.464844 C 104.21875 48.304688 112.089844 50.476562 115.683594 56.699219 C 133.179688 62.898438 150.257812 64.46875 164.351562 77.75 C 176.292969 89 186.617188 106.699219 187.859375 123.285156 " fill-opacity="1" fill-rule="nonzero"/></g><path fill="#000000" d="M 184.90625 267.464844 C 185.550781 269.148438 185.804688 270.175781 185.507812 270.351562 C 185.242188 270.539062 184.421875 269.839844 183.257812 268.390625 C 182.070312 266.960938 180.621094 264.703125 178.792969 262.148438 C 177.882812 260.855469 176.796875 259.535156 175.691406 258.332031 C 175.375 258.007812 175.007812 257.671875 174.664062 257.328125 L 174.121094 256.824219 L 174.042969 256.746094 L 174.023438 256.746094 L 174.003906 256.707031 L 173.921875 256.648438 L 173.636719 256.429688 C 172.855469 255.839844 172.074219 255.238281 171.265625 254.597656 C 169.496094 253.332031 167.652344 252.011719 165.753906 250.640625 C 164.71875 249.941406 163.828125 249.183594 162.898438 248.414062 L 162.199219 247.832031 L 161.832031 247.535156 L 161.65625 247.40625 L 161.417969 247.171875 L 161.347656 247.09375 L 160.046875 245.808594 C 156.566406 242.410156 153.171875 239.558594 149.652344 238 C 148.765625 237.675781 148.082031 237.25 147.015625 237.015625 C 146.53125 236.875 146.046875 236.75 145.566406 236.628906 C 145.308594 236.511719 144.726562 236.453125 144.339844 236.375 C 142.589844 236.027344 140.84375 235.890625 139.234375 235.703125 C 135.972656 235.367188 133.277344 234.964844 131.410156 234.203125 C 129.621094 233.535156 128.832031 232.875 128.910156 232.558594 C 128.980469 232.210938 130.066406 232.292969 131.855469 232.359375 C 133.542969 232.460938 136.121094 232.359375 139.371094 232.230469 C 142.632812 232.132812 146.808594 232.09375 151.34375 233.800781 C 155.847656 235.484375 159.886719 238.78125 163.484375 242.308594 L 164.796875 243.621094 L 166.039062 244.667969 C 166.96875 245.464844 167.867188 246.265625 168.757812 246.90625 C 170.484375 248.234375 172.351562 249.65625 174.0625 251.027344 C 174.890625 251.785156 175.710938 252.515625 176.519531 253.214844 L 176.816406 253.492188 L 177.042969 253.699219 L 177.164062 253.855469 L 177.667969 254.398438 C 178.003906 254.78125 178.308594 255.117188 178.632812 255.523438 C 179.976562 257.25 180.964844 258.816406 181.746094 260.316406 C 183.316406 263.292969 184.273438 265.757812 184.90625 267.464844 " fill-opacity="1" fill-rule="nonzero"/><path fill="#000000" d="M 157.675781 230.25 C 164.53125 234.363281 168.875 239.015625 168.371094 239.667969 C 167.789062 240.445312 162.484375 236.957031 156.023438 233.082031 C 152.765625 231.226562 149.714844 229.746094 147.519531 228.78125 C 145.210938 227.855469 143.660156 227.234375 143.777344 226.75 C 143.875 226.335938 145.484375 226.148438 148.0625 226.53125 C 150.742188 227.015625 154.199219 228.277344 157.675781 230.25 " fill-opacity="1" fill-rule="nonzero"/><path fill="#000000" d="M 113.027344 157.3125 C 118.945312 163.101562 124.476562 167.214844 123.953125 168.03125 C 123.527344 168.75 117.027344 165.785156 110.71875 159.640625 C 107.625 156.535156 105.324219 153.242188 103.980469 150.648438 C 102.734375 148.09375 102.3125 146.378906 102.675781 146.171875 C 103.089844 145.914062 104.257812 147.296875 105.984375 149.464844 C 107.683594 151.535156 110.09375 154.382812 113.027344 157.3125 " fill-opacity="1" fill-rule="nonzero"/><path fill="#000000" d="M 112.289062 167.507812 C 113.9375 169.015625 114.894531 170.101562 114.636719 170.46875 C 114.402344 170.859375 113.007812 170.457031 110.964844 169.402344 C 108.929688 168.355469 106.210938 166.652344 103.632812 164.15625 C 101.046875 161.652344 99.25 158.675781 98.734375 156.226562 C 98.152344 153.714844 98.707031 152.351562 99.089844 152.292969 C 99.574219 152.214844 99.941406 153.742188 100.917969 155.429688 C 101.847656 157.273438 103.59375 159.542969 105.9375 161.808594 C 108.265625 164.078125 110.617188 166.011719 112.289062 167.507812 " fill-opacity="1" fill-rule="nonzero"/><path fill="#000000" d="M 100.386719 136.597656 C 100.957031 138.363281 101.105469 139.425781 100.800781 139.5625 C 100.484375 139.703125 99.78125 138.941406 98.707031 137.472656 C 97.621094 135.996094 96.078125 133.863281 94.429688 130.9375 C 93.597656 129.488281 92.820312 127.78125 92.097656 125.730469 C 91.929688 125.238281 91.832031 124.773438 91.691406 124.289062 L 91.445312 123.402344 L 91.386719 123.085938 L 91.328125 122.683594 C 91.167969 121.636719 90.992188 120.554688 90.824219 119.449219 C 90.585938 117.261719 90.410156 114.933594 90.242188 112.765625 C 90.179688 111.660156 90.003906 110.476562 89.847656 109.273438 L 89.636719 107.667969 L 89.261719 105.820312 C 88.253906 100.902344 87.671875 95.746094 88.71875 91.042969 C 89.757812 86.308594 92.058594 82.828125 93.925781 80.144531 C 95.792969 77.511719 97.285156 75.402344 98.125 73.945312 C 99.03125 72.414062 99.554688 71.449219 99.902344 71.585938 C 100.199219 71.683594 100.316406 72.710938 99.921875 74.566406 C 99.535156 76.546875 98.410156 79.023438 96.917969 81.949219 C 96.175781 83.390625 95.355469 84.9375 94.6875 86.566406 C 94.546875 86.949219 94.269531 87.472656 94.230469 87.75 C 94.082031 88.210938 93.925781 88.695312 93.785156 89.179688 C 93.402344 90.203125 93.382812 91.003906 93.164062 91.910156 C 92.550781 95.707031 93.105469 100.113281 94.082031 104.875 L 94.449219 106.660156 L 94.46875 106.757812 L 94.527344 107.085938 L 94.546875 107.320312 L 94.605469 107.765625 L 94.707031 108.671875 C 94.832031 109.875 94.992188 111.039062 95.03125 112.28125 C 95.128906 114.628906 95.25 116.886719 95.335938 119.046875 C 95.417969 120.070312 95.515625 121.054688 95.59375 122.023438 L 95.191406 122.4375 L 95.167969 122.507812 L 94.972656 122.527344 L 95.316406 122.683594 L 95.632812 123.382812 C 95.714844 123.867188 95.871094 124.371094 95.980469 124.792969 C 96.394531 126.382812 96.9375 128.019531 97.539062 129.46875 C 98.707031 132.394531 99.8125 134.832031 100.386719 136.597656 " fill-opacity="1" fill-rule="nonzero"/><path fill="#000000" d="M 95.574219 122.605469 L 95.574219 122.625 C 95.574219 122.703125 95.4375 122.625 95.316406 122.585938 L 95.574219 122.605469 " fill-opacity="1" fill-rule="nonzero"/><path fill="#000000" d="M 95.316406 122.585938 L 95.167969 122.566406 L 95.167969 122.507812 C 95.191406 122.507812 95.25 122.546875 95.316406 122.585938 " fill-opacity="1" fill-rule="nonzero"/><path fill="#000000" d="M 86.921875 80.867188 C 87.367188 81.023438 87.050781 82.648438 86.585938 85.105469 C 86.199219 87.453125 85.777344 90.824219 85.558594 94.5625 C 85.292969 102.085938 85.339844 108.425781 84.375 108.503906 C 83.542969 108.574219 82.003906 102.382812 82.28125 94.414062 C 82.507812 90.421875 83.328125 86.851562 84.414062 84.335938 C 85.480469 81.96875 86.507812 80.726562 86.921875 80.867188 " fill-opacity="1" fill-rule="nonzero"/></svg>