<svg xmlns="http://www.w3.org/2000/svg" xmlns:xlink="http://www.w3.org/1999/xlink" width="500" zoomAndPan="magnify" viewBox="0 0 375 374.999991" height="500" preserveAspectRatio="xMidYMid meet" version="1.0"><metadata><ContainsAiGeneratedContent>Yes</ContainsAiGeneratedContent></metadata><defs><clipPath id="0519b86b59"><path d="M 45.445312 75 L 86 75 L 86 99 L 45.445312 99 Z M 45.445312 75 " clip-rule="nonzero"/></clipPath><clipPath id="35e39583e1"><path d="M 166 55 L 268 55 L 268 366.277344 L 166 366.277344 Z M 166 55 " clip-rule="nonzero"/></clipPath><clipPath id="2d613ccb34"><path d="M 168 210 L 337.195312 210 L 337.195312 327 L 168 327 Z M 168 210 " clip-rule="nonzero"/></clipPath></defs><rect x="-37.5" width="450" fill="#ffffff" y="-37.499999" height="449.999989" fill-opacity="1"/><rect x="-37.5" width="450" fill="#ffffff" y="-37.499999" height="449.999989" fill-opacity="1"/><path fill="#eea11e" d="M 134.757812 188.871094 C 135.769531 187.664062 136.648438 185.421875 137.394531 182.140625 C 138.339844 178.125 139.027344 173.46875 139.453125 168.164062 C 139.882812 163.339844 139.140625 156.234375 137.21875 146.839844 C 136.980469 146.1875 136.714844 145.980469 136.433594 146.21875 C 134.585938 147.648438 133.367188 148.769531 132.777344 149.589844 C 131.433594 151.175781 130.21875 153.628906 129.140625 156.953125 C 128.714844 158.382812 128.542969 160.050781 128.625 161.960938 C 128.636719 162.46875 128.703125 163.339844 128.832031 164.574219 C 129.476562 169.703125 129.8125 172.621094 129.835938 173.328125 Z M 134.757812 188.871094 " fill-opacity="1" fill-rule="nonzero"/><path fill="#eea11e" d="M 142.476562 216.527344 C 149.820312 208.507812 153.996094 195.734375 155.003906 178.203125 C 154.964844 177.640625 154.785156 177.4375 154.472656 177.597656 C 151.660156 179.164062 150.089844 180.117188 149.761719 180.457031 C 148.355469 181.507812 147.039062 183.183594 145.820312 185.484375 C 144.851562 187.328125 144.148438 189.410156 143.710938 191.730469 C 143.371094 193.230469 142.976562 196.847656 142.527344 202.578125 Z M 142.476562 216.527344 " fill-opacity="1" fill-rule="nonzero"/><path fill="#eea11e" d="M 152.648438 249.796875 C 156.011719 248.644531 158.636719 245.84375 160.519531 241.394531 C 162.167969 238.230469 164.566406 229.824219 167.710938 216.175781 C 167.402344 214.882812 166.050781 214.945312 163.65625 216.367188 C 161.804688 217.390625 160.121094 219.074219 158.597656 221.410156 C 155.980469 225.589844 154.128906 231.511719 153.039062 239.171875 Z M 152.648438 249.796875 " fill-opacity="1" fill-rule="nonzero"/><path fill="#eea11e" d="M 147.773438 242.523438 C 146.871094 239.480469 143.050781 236.921875 136.308594 234.847656 C 133.445312 233.925781 128.46875 233.164062 121.378906 232.570312 C 117.234375 232.207031 115 232.320312 114.683594 232.90625 C 114.53125 233.101562 114.699219 233.5 115.191406 234.101562 C 116.480469 235.433594 117.769531 236.664062 119.054688 237.792969 C 121.378906 239.847656 123.703125 241.53125 126.03125 242.851562 C 128.230469 244.433594 134.3125 246.84375 144.277344 250.082031 Z M 147.773438 242.523438 " fill-opacity="1" fill-rule="nonzero"/><path fill="#eea11e" d="M 141.824219 226.335938 C 138.984375 219.617188 134.398438 213.671875 128.070312 208.503906 C 125.386719 206.464844 122.4375 204.773438 119.226562 203.433594 C 111.683594 200.699219 107.890625 199.648438 107.84375 200.28125 C 109.121094 201.410156 110.363281 202.703125 111.574219 204.15625 C 115.4375 209.65625 117.789062 212.804688 118.628906 213.597656 C 120.367188 215.613281 122.328125 217.558594 124.511719 219.429688 C 127.6875 222.414062 134.265625 226.457031 144.25 231.558594 Z M 141.824219 226.335938 " fill-opacity="1" fill-rule="nonzero"/><path fill="#eea11e" d="M 128.773438 177.066406 C 125.84375 172.5625 121.503906 168.898438 115.753906 166.082031 C 112.859375 164.738281 109.515625 163.628906 105.722656 162.746094 C 100.824219 161.675781 97.699219 161.035156 96.34375 160.820312 C 95.050781 160.597656 94.40625 160.695312 94.414062 161.117188 C 100.089844 169.492188 104.109375 174.554688 106.472656 176.308594 C 113.246094 182.03125 119.988281 186.667969 126.703125 190.21875 Z M 128.773438 177.066406 " fill-opacity="1" fill-rule="nonzero"/><path fill="#eea11e" d="M 117.007812 143.777344 C 120.007812 141.078125 122.050781 136.53125 123.132812 130.144531 C 124.417969 122.667969 124.554688 114.527344 123.542969 105.726562 C 123.429688 105.691406 123.320312 105.730469 123.21875 105.847656 C 116.359375 111.96875 113.042969 115.011719 113.273438 114.972656 C 111.328125 117.085938 109.785156 119.28125 108.648438 121.566406 C 106.480469 125.476562 106.308594 130.507812 108.144531 136.660156 Z M 117.007812 143.777344 " fill-opacity="1" fill-rule="nonzero"/><path fill="#eea11e" d="M 103.472656 121.582031 C 105.261719 118.628906 106.414062 116.199219 106.925781 114.296875 C 107.632812 111.9375 108.125 108.871094 108.402344 105.097656 C 108.78125 98.808594 108.851562 92.992188 108.621094 87.640625 C 108.367188 83.714844 107.742188 80.277344 106.75 77.328125 C 106.378906 76.457031 106.015625 76.140625 105.652344 76.378906 C 102.925781 79 101.578125 80.367188 101.601562 80.480469 C 100.257812 82.058594 99.160156 84.488281 98.3125 87.765625 C 97 92.828125 97.1875 100.117188 98.878906 109.632812 Z M 103.472656 121.582031 " fill-opacity="1" fill-rule="nonzero"/><path fill="#eea11e" d="M 93.488281 87.929688 C 95.015625 83.621094 94.21875 75.339844 91.097656 63.085938 C 89.617188 57.027344 85.972656 49.398438 80.167969 40.199219 C 79.152344 38.6875 78.023438 40.050781 76.777344 44.285156 C 76.175781 46.703125 76.1875 49.886719 76.816406 53.839844 C 77.960938 60.964844 81.242188 69.472656 86.660156 79.371094 Z M 93.488281 87.929688 " fill-opacity="1" fill-rule="nonzero"/><path fill="#eea11e" d="M 78.808594 67.878906 C 77.046875 63.628906 73.226562 59.898438 67.351562 56.691406 C 65.121094 55.449219 61.921875 54.40625 57.75 53.558594 C 54.09375 52.765625 52.179688 52.394531 52 52.453125 C 51.464844 52.378906 51.128906 52.597656 50.992188 53.101562 C 57.199219 68.691406 65.871094 79.925781 77.011719 86.804688 Z M 78.808594 67.878906 " fill-opacity="1" fill-rule="nonzero"/><path fill="#eea11e" d="M 99.429688 113.484375 C 97.53125 104.113281 93.945312 98.519531 88.679688 96.703125 C 84.703125 94.957031 80.046875 93.933594 74.707031 93.640625 C 67.890625 93.414062 63.972656 93.382812 62.953125 93.550781 C 61.296875 93.757812 60.65625 94.300781 61.035156 95.183594 C 66.078125 102.3125 71.652344 107.832031 77.75 111.746094 C 83.28125 115.117188 91.230469 117.933594 101.605469 120.195312 Z M 99.429688 113.484375 " fill-opacity="1" fill-rule="nonzero"/><path fill="#eea11e" d="M 85.324219 75.210938 C 82.273438 72.597656 77.683594 70.128906 71.554688 67.804688 C 66.179688 66.0625 63.730469 66.015625 64.214844 67.660156 C 68.34375 76.335938 72.332031 82.972656 76.1875 87.5625 C 79.214844 91.289062 84.160156 95.40625 91.015625 99.914062 Z M 85.324219 75.210938 " fill-opacity="1" fill-rule="nonzero"/><path fill="#eea11e" d="M 110.84375 135.90625 C 108.570312 133.238281 104.425781 131.375 98.402344 130.320312 C 94.769531 129.664062 91.738281 129.320312 89.304688 129.292969 C 87 129.261719 84.226562 129.3125 80.980469 129.449219 C 79.863281 129.511719 79.417969 129.671875 79.644531 129.933594 L 96.503906 145.125 C 98.65625 146.980469 100.507812 148.386719 102.058594 149.335938 C 106 151.984375 112.125 154.132812 120.433594 155.777344 Z M 110.84375 135.90625 " fill-opacity="1" fill-rule="nonzero"/><path fill="#fec107" d="M 171.707031 364.5625 C 169.863281 360.640625 168.425781 355.886719 167.394531 350.3125 C 163.613281 319.835938 159.207031 294.964844 154.175781 275.699219 C 151.234375 262.230469 144.671875 240.125 134.496094 209.378906 C 128.503906 186.433594 107.226562 134.726562 70.660156 54.253906 C 106.746094 125.160156 126.785156 167.359375 130.78125 180.859375 C 139.667969 203.589844 151.277344 241.644531 165.609375 295.019531 Z M 171.707031 364.5625 " fill-opacity="1" fill-rule="nonzero"/><path fill="#fec107" d="M 78.484375 70.699219 C 78.742188 67.226562 78.453125 63.878906 77.617188 60.660156 C 75.863281 54.441406 73.671875 48 71.050781 41.34375 C 69.648438 37.136719 65.265625 30.410156 57.90625 21.164062 C 57.238281 20.238281 56.480469 20.414062 55.636719 21.683594 C 54.421875 24.921875 53.675781 27.167969 53.398438 28.421875 C 52.644531 31.941406 52.875 35.183594 54.097656 38.148438 C 55.242188 41.03125 57.253906 44.429688 60.132812 48.339844 C 60.957031 49.632812 66.179688 56.132812 75.804688 67.847656 Z M 78.484375 70.699219 " fill-opacity="1" fill-rule="nonzero"/><path fill="#fec107" d="M 99.515625 93.574219 C 99.378906 92.914062 99.175781 88.992188 98.90625 81.804688 C 98.824219 80.386719 98.703125 79.070312 98.546875 77.855469 C 98.03125 73.824219 97.226562 70.117188 96.136719 66.730469 C 94.550781 61.8125 92.792969 57.484375 90.867188 53.746094 C 90.058594 52.121094 88.117188 48.867188 85.035156 43.988281 C 83.921875 42.359375 83.335938 41.738281 83.277344 42.117188 C 83.160156 42.199219 83.082031 42.425781 83.050781 42.796875 C 82.890625 46.332031 82.761719 48.289062 82.664062 48.664062 C 81.640625 54.671875 81.207031 57.613281 81.363281 57.476562 C 81.238281 59.3125 81.511719 61.601562 82.183594 64.339844 C 83.976562 71.398438 88.886719 81.960938 96.910156 96.019531 Z M 99.515625 93.574219 " fill-opacity="1" fill-rule="nonzero"/><g clip-path="url(#0519b86b59)"><path fill="#fec107" d="M 85.207031 96.234375 C 84.546875 91.3125 79.898438 86.347656 71.265625 81.339844 C 68.773438 79.941406 64.839844 78.582031 59.464844 77.257812 C 57.4375 76.757812 53.984375 76.132812 49.113281 75.382812 C 47.265625 75.132812 46.195312 75.128906 45.894531 75.371094 C 45.597656 75.621094 45.554688 75.894531 45.769531 76.183594 C 48.535156 79.324219 50.183594 81.109375 50.71875 81.550781 C 55.867188 86.125 59.097656 88.726562 60.414062 89.355469 C 63.050781 90.980469 66.054688 92.46875 69.425781 93.816406 C 70.015625 94.152344 74.421875 95.578125 82.644531 98.085938 Z M 85.207031 96.234375 " fill-opacity="1" fill-rule="nonzero"/></g><path fill="#fec107" d="M 113.152344 119.929688 C 113.960938 118.238281 114.535156 116.953125 114.871094 116.070312 L 120.550781 101.253906 C 121.375 98.875 121.765625 96.703125 121.722656 94.738281 C 121.625 90.8125 120.714844 86.921875 118.996094 83.0625 C 116.011719 76.558594 113.882812 73.578125 112.605469 74.125 C 112.011719 74.507812 111.605469 75.375 111.386719 76.730469 C 109.726562 86.289062 108.246094 93.492188 106.953125 98.34375 C 106.570312 100.40625 106.308594 102.660156 106.171875 105.105469 C 105.96875 107.621094 106.117188 110.054688 106.617188 112.410156 C 106.882812 113.933594 107.925781 117.191406 109.746094 122.1875 Z M 113.152344 119.929688 " fill-opacity="1" fill-rule="nonzero"/><path fill="#fec107" d="M 109.601562 132.222656 C 105.921875 126.808594 99.8125 121.839844 91.273438 117.324219 C 84.011719 114.039062 75.957031 112.074219 67.101562 111.425781 C 64.863281 111.222656 64.089844 111.542969 64.789062 112.390625 L 72.285156 122.316406 C 73.9375 124.257812 75.78125 126.003906 77.816406 127.558594 C 79.097656 128.613281 81.625 129.511719 85.402344 130.261719 C 87.132812 130.671875 90.730469 131.007812 96.199219 131.261719 Z M 109.601562 132.222656 " fill-opacity="1" fill-rule="nonzero"/><path fill="#fec107" d="M 126.046875 165.601562 C 129.753906 157.296875 131.808594 149.5625 132.207031 142.398438 C 132.367188 139.152344 132.207031 135.871094 131.734375 132.550781 C 131.84375 132.421875 130.851562 127.132812 128.753906 116.679688 C 128.574219 119.457031 128.152344 121.578125 127.488281 123.046875 C 127.570312 123.390625 125.253906 127.261719 120.535156 134.65625 C 119.625 136.332031 118.984375 137.945312 118.613281 139.492188 C 117.714844 142.53125 118.128906 146.957031 119.855469 152.773438 Z M 126.046875 165.601562 " fill-opacity="1" fill-rule="nonzero"/><path fill="#fec107" d="M 116.242188 157.566406 C 114.054688 154.242188 110.007812 151.53125 104.105469 149.429688 C 97.628906 146.894531 89.734375 145.34375 80.417969 144.78125 C 81.832031 145.046875 84.367188 146.238281 88.027344 148.363281 C 88.351562 148.433594 92.382812 151.070312 100.125 156.265625 C 102.796875 157.921875 105.132812 159.273438 107.136719 160.328125 Z M 116.242188 157.566406 " fill-opacity="1" fill-rule="nonzero"/><path fill="#fec107" d="M 143.527344 201.582031 C 147.496094 195.625 150.042969 189.605469 151.175781 183.523438 C 152.78125 175.378906 153.019531 167.921875 151.894531 161.160156 C 149.820312 150.164062 148.398438 145.683594 147.636719 147.71875 C 147.109375 150.378906 146.671875 152.078125 146.320312 152.816406 C 143.527344 158.570312 142.085938 161.707031 142.003906 162.230469 C 141.394531 163.933594 140.964844 165.621094 140.710938 167.292969 C 139.984375 170.6875 140.136719 177.402344 141.167969 187.4375 Z M 143.527344 201.582031 " fill-opacity="1" fill-rule="nonzero"/><path fill="#fec107" d="M 138.296875 204.375 C 136.0625 198.609375 129.011719 192.773438 117.140625 186.867188 C 114.007812 185.441406 110.09375 184.164062 105.394531 183.027344 C 101.941406 182.199219 99.445312 181.683594 97.902344 181.484375 C 97.164062 181.382812 96.855469 181.539062 96.988281 181.945312 C 100.976562 184.511719 105.253906 187.398438 109.820312 190.609375 C 111.328125 191.597656 112.664062 192.429688 113.824219 193.101562 C 117.691406 195.363281 121.679688 197.242188 125.796875 198.742188 Z M 138.296875 204.375 " fill-opacity="1" fill-rule="nonzero"/><path fill="#fec107" d="M 153.234375 235.320312 C 156.851562 231.515625 159.746094 224.96875 161.925781 215.679688 C 163.832031 207.644531 165.203125 200.390625 166.046875 193.917969 C 167.109375 186.046875 167.371094 181.21875 166.835938 179.433594 C 166.4375 178.898438 165.949219 178.863281 165.367188 179.328125 C 164.964844 179.632812 163.105469 181.847656 159.792969 185.96875 C 156.992188 189.4375 154.222656 193.722656 151.484375 198.828125 C 148.367188 205.019531 146.554688 212.355469 146.054688 220.828125 Z M 153.234375 235.320312 " fill-opacity="1" fill-rule="nonzero"/><path fill="#fec107" d="M 149.03125 238.503906 C 146.988281 236.03125 143.878906 233.59375 139.695312 231.191406 C 134.316406 228.039062 129.027344 225.59375 123.828125 223.859375 C 121.304688 223.003906 118.65625 222.539062 115.882812 222.464844 C 114.03125 222.441406 112.578125 222.535156 111.523438 222.746094 C 110.953125 222.925781 110.789062 223.207031 111.039062 223.59375 C 115.632812 225.167969 118.855469 226.394531 120.714844 227.273438 C 121.582031 227.585938 125.46875 229.546875 132.375 233.160156 Z M 149.03125 238.503906 " fill-opacity="1" fill-rule="nonzero"/><path fill="#fec107" d="M 163.015625 264.574219 C 166.539062 259.613281 169.007812 253.261719 170.417969 245.523438 C 171.171875 241.554688 171.675781 237.113281 171.925781 232.203125 C 172.082031 229.441406 172.136719 225.679688 172.089844 220.917969 C 172.097656 218.617188 172 217.605469 171.804688 217.890625 C 171.707031 217.820312 171.566406 217.929688 171.390625 218.214844 C 170.671875 220.121094 169.625 222.308594 168.238281 224.785156 C 163.78125 232.417969 161.414062 236.546875 161.140625 237.171875 C 159.957031 239.421875 159.078125 241.234375 158.511719 242.613281 C 156.1875 248.097656 154.550781 254.144531 153.601562 260.746094 Z M 163.015625 264.574219 " fill-opacity="1" fill-rule="nonzero"/><path fill="#fec107" d="M 162.867188 259.722656 C 158.6875 256.109375 151.382812 252.261719 140.957031 248.175781 C 137.726562 247.035156 134.3125 246.183594 130.722656 245.628906 C 125.703125 244.871094 122.597656 244.664062 121.398438 245 C 120.40625 245.21875 120.335938 245.84375 121.191406 246.875 C 123.285156 249.542969 125.253906 251.613281 127.101562 253.082031 C 128.796875 254.679688 135.261719 258.714844 146.488281 265.1875 Z M 162.867188 259.722656 " fill-opacity="1" fill-rule="nonzero"/><path fill="#eea11e" d="M 203.863281 190.570312 C 202.851562 189.367188 201.972656 187.125 201.226562 183.839844 C 200.28125 179.828125 199.59375 175.167969 199.164062 169.867188 C 198.738281 165.042969 199.480469 157.933594 201.402344 148.542969 C 201.640625 147.886719 201.902344 147.679688 202.1875 147.917969 C 204.035156 149.347656 205.253906 150.472656 205.84375 151.292969 C 207.1875 152.875 208.402344 155.332031 209.480469 158.65625 C 209.90625 160.082031 210.078125 161.753906 209.996094 163.660156 C 209.984375 164.171875 209.917969 165.042969 209.789062 166.277344 C 209.144531 171.40625 208.808594 174.324219 208.785156 175.03125 Z M 203.863281 190.570312 " fill-opacity="1" fill-rule="nonzero"/><path fill="#eea11e" d="M 196.144531 218.230469 C 188.800781 210.210938 184.625 197.433594 183.617188 179.90625 C 183.65625 179.339844 183.835938 179.140625 184.148438 179.300781 C 186.960938 180.867188 188.53125 181.820312 188.855469 182.160156 C 190.265625 183.210938 191.582031 184.886719 192.800781 187.1875 C 193.769531 189.03125 194.46875 191.113281 194.910156 193.433594 C 195.25 194.929688 195.644531 198.546875 196.09375 204.28125 Z M 196.144531 218.230469 " fill-opacity="1" fill-rule="nonzero"/><path fill="#eea11e" d="M 185.972656 251.5 C 182.609375 250.34375 179.984375 247.542969 178.101562 243.097656 C 176.449219 239.933594 174.054688 231.523438 170.910156 217.875 C 171.214844 216.582031 172.566406 216.648438 174.964844 218.070312 C 176.8125 219.09375 178.5 220.773438 180.023438 223.109375 C 182.640625 227.292969 184.492188 233.214844 185.582031 240.871094 Z M 185.972656 251.5 " fill-opacity="1" fill-rule="nonzero"/><path fill="#eea11e" d="M 190.847656 244.222656 C 191.75 241.183594 195.570312 238.625 202.3125 236.546875 C 205.175781 235.625 210.152344 234.867188 217.242188 234.269531 C 221.386719 233.910156 223.621094 234.023438 223.9375 234.609375 C 224.089844 234.800781 223.917969 235.199219 223.429688 235.800781 C 222.140625 237.132812 220.851562 238.367188 219.566406 239.496094 C 217.242188 241.546875 214.917969 243.234375 212.589844 244.554688 C 210.390625 246.136719 204.308594 248.546875 194.34375 251.785156 Z M 190.847656 244.222656 " fill-opacity="1" fill-rule="nonzero"/><path fill="#eea11e" d="M 196.792969 228.035156 C 199.636719 221.316406 204.222656 215.375 210.550781 210.207031 C 213.234375 208.164062 216.179688 206.476562 219.394531 205.136719 C 226.933594 202.402344 230.730469 201.347656 230.777344 201.980469 C 229.5 203.113281 228.257812 204.40625 227.046875 205.855469 C 223.183594 211.359375 220.832031 214.507812 219.988281 215.300781 C 218.253906 217.3125 216.292969 219.257812 214.109375 221.132812 C 210.933594 224.117188 204.351562 228.15625 194.367188 233.257812 Z M 196.792969 228.035156 " fill-opacity="1" fill-rule="nonzero"/><path fill="#eea11e" d="M 209.847656 178.769531 C 212.777344 174.261719 217.117188 170.601562 222.867188 167.78125 C 225.761719 166.441406 229.105469 165.332031 232.898438 164.449219 C 237.796875 163.378906 240.921875 162.734375 242.277344 162.523438 C 243.570312 162.300781 244.210938 162.398438 244.207031 162.820312 C 238.53125 171.195312 234.511719 176.257812 232.148438 178.007812 C 225.375 183.734375 218.632812 188.371094 211.914062 191.917969 Z M 209.847656 178.769531 " fill-opacity="1" fill-rule="nonzero"/><path fill="#eea11e" d="M 221.613281 145.480469 C 218.613281 142.777344 216.570312 138.234375 215.488281 131.847656 C 214.203125 124.371094 214.066406 116.230469 215.078125 107.429688 C 215.191406 107.390625 215.300781 107.433594 215.402344 107.550781 C 222.261719 113.671875 225.574219 116.710938 225.347656 116.671875 C 227.292969 118.785156 228.832031 120.984375 229.972656 123.269531 C 232.140625 127.179688 232.308594 132.210938 230.476562 138.363281 Z M 221.613281 145.480469 " fill-opacity="1" fill-rule="nonzero"/><path fill="#eea11e" d="M 235.148438 123.285156 C 233.359375 120.332031 232.207031 117.902344 231.691406 115.996094 C 230.988281 113.640625 230.496094 110.574219 230.214844 106.796875 C 229.839844 100.511719 229.765625 94.691406 229.996094 89.339844 C 230.253906 85.414062 230.878906 81.976562 231.871094 79.027344 C 232.242188 78.160156 232.605469 77.84375 232.96875 78.078125 C 235.695312 80.699219 237.042969 82.066406 237.019531 82.179688 C 238.363281 83.757812 239.457031 86.1875 240.308594 89.464844 C 241.621094 94.53125 241.433594 101.820312 239.742188 111.335938 Z M 235.148438 123.285156 " fill-opacity="1" fill-rule="nonzero"/><path fill="#eea11e" d="M 245.132812 89.628906 C 243.605469 85.324219 244.402344 77.042969 247.523438 64.785156 C 249.003906 58.730469 252.648438 51.101562 258.453125 41.902344 C 259.46875 40.390625 260.597656 41.753906 261.839844 45.988281 C 262.445312 48.40625 262.429688 51.589844 261.800781 55.539062 C 260.660156 62.664062 257.378906 71.175781 251.960938 81.070312 Z M 245.132812 89.628906 " fill-opacity="1" fill-rule="nonzero"/><path fill="#eea11e" d="M 259.808594 69.578125 C 261.574219 65.332031 265.394531 61.601562 271.269531 58.394531 C 273.496094 57.152344 276.695312 56.105469 280.871094 55.261719 C 284.527344 54.464844 286.441406 54.097656 286.621094 54.152344 C 287.15625 54.082031 287.492188 54.296875 287.625 54.800781 C 281.421875 70.394531 272.75 81.628906 261.609375 88.507812 Z M 259.808594 69.578125 " fill-opacity="1" fill-rule="nonzero"/><path fill="#eea11e" d="M 239.1875 115.183594 C 241.089844 105.816406 244.675781 100.222656 249.941406 98.40625 C 253.917969 96.65625 258.574219 95.636719 263.914062 95.34375 C 270.730469 95.113281 274.648438 95.085938 275.667969 95.253906 C 277.324219 95.460938 277.964844 96.003906 277.585938 96.886719 C 272.542969 104.015625 266.96875 109.535156 260.871094 113.445312 C 255.339844 116.820312 247.390625 119.636719 237.015625 121.898438 Z M 239.1875 115.183594 " fill-opacity="1" fill-rule="nonzero"/><path fill="#eea11e" d="M 253.296875 76.910156 C 256.347656 74.300781 260.9375 71.832031 267.0625 69.507812 C 272.441406 67.765625 274.890625 67.71875 274.40625 69.363281 C 270.277344 78.039062 266.285156 84.671875 262.433594 89.265625 C 259.40625 92.988281 254.460938 97.105469 247.605469 101.617188 Z M 253.296875 76.910156 " fill-opacity="1" fill-rule="nonzero"/><path fill="#eea11e" d="M 227.777344 137.605469 C 230.050781 134.9375 234.195312 133.078125 240.21875 132.019531 C 243.851562 131.363281 246.882812 131.023438 249.316406 130.992188 C 251.621094 130.960938 254.394531 131.015625 257.640625 131.148438 C 258.757812 131.210938 259.203125 131.371094 258.976562 131.632812 L 242.117188 146.824219 C 239.964844 148.683594 238.113281 150.085938 236.5625 151.035156 C 232.621094 153.683594 226.496094 155.832031 218.1875 157.480469 Z M 227.777344 137.605469 " fill-opacity="1" fill-rule="nonzero"/><g clip-path="url(#35e39583e1)"><path fill="#fec107" d="M 166.914062 366.265625 C 168.757812 362.339844 170.195312 357.589844 171.222656 352.011719 C 175.007812 321.535156 179.414062 296.664062 184.445312 277.398438 C 187.386719 263.933594 193.945312 241.824219 204.125 211.082031 C 210.117188 188.136719 231.394531 136.429688 267.960938 55.957031 C 231.875 126.859375 211.835938 169.0625 207.835938 182.558594 C 198.953125 205.292969 187.34375 243.34375 173.011719 296.722656 Z M 166.914062 366.265625 " fill-opacity="1" fill-rule="nonzero"/></g><path fill="#fec107" d="M 260.136719 72.398438 C 259.875 68.925781 260.164062 65.582031 261.003906 62.363281 C 262.757812 56.144531 264.945312 49.703125 267.570312 43.042969 C 268.972656 38.839844 273.351562 32.113281 280.710938 22.867188 C 281.382812 21.941406 282.140625 22.113281 282.984375 23.386719 C 284.199219 26.621094 284.945312 28.867188 285.222656 30.125 C 285.976562 33.644531 285.742188 36.886719 284.523438 39.851562 C 283.378906 42.734375 281.367188 46.128906 278.488281 50.039062 C 277.664062 51.332031 272.441406 57.835938 262.816406 69.546875 Z M 260.136719 72.398438 " fill-opacity="1" fill-rule="nonzero"/><path fill="#fec107" d="M 239.105469 95.273438 C 239.242188 94.613281 239.441406 90.691406 239.714844 83.507812 C 239.796875 82.089844 239.917969 80.773438 240.074219 79.558594 C 240.589844 75.527344 241.394531 71.816406 242.480469 68.429688 C 244.070312 63.511719 245.828125 59.1875 247.753906 55.449219 C 248.5625 53.824219 250.503906 50.570312 253.582031 45.6875 C 254.699219 44.0625 255.285156 43.441406 255.34375 43.820312 C 255.460938 43.902344 255.539062 44.128906 255.570312 44.5 C 255.730469 48.035156 255.859375 49.992188 255.957031 50.363281 C 256.980469 56.375 257.414062 59.3125 257.257812 59.179688 C 257.382812 61.015625 257.109375 63.304688 256.433594 66.042969 C 254.640625 73.101562 249.734375 83.660156 241.707031 97.722656 Z M 239.105469 95.273438 " fill-opacity="1" fill-rule="nonzero"/><path fill="#fec107" d="M 253.414062 97.933594 C 254.074219 93.015625 258.722656 88.050781 267.355469 83.042969 C 269.847656 81.644531 273.78125 80.285156 279.15625 78.960938 C 281.183594 78.457031 284.632812 77.832031 289.507812 77.085938 C 291.351562 76.835938 292.425781 76.832031 292.726562 77.074219 C 293.023438 77.324219 293.066406 77.59375 292.851562 77.886719 C 290.085938 81.023438 288.4375 82.8125 287.902344 83.25 C 282.753906 87.828125 279.523438 90.429688 278.207031 91.054688 C 275.570312 92.683594 272.566406 94.167969 269.195312 95.515625 C 268.605469 95.855469 264.199219 97.277344 255.976562 99.785156 Z M 253.414062 97.933594 " fill-opacity="1" fill-rule="nonzero"/><path fill="#fec107" d="M 225.46875 121.632812 C 224.660156 119.941406 224.085938 118.652344 223.75 117.773438 L 218.070312 102.957031 C 217.246094 100.574219 216.851562 98.402344 216.898438 96.4375 C 216.996094 92.515625 217.90625 88.621094 219.625 84.765625 C 222.609375 78.257812 224.738281 75.277344 226.015625 75.828125 C 226.609375 76.210938 227.011719 77.078125 227.234375 78.433594 C 228.894531 87.992188 230.371094 95.195312 231.667969 100.042969 C 232.050781 102.109375 232.3125 104.363281 232.449219 106.808594 C 232.652344 109.320312 232.503906 111.757812 232 114.113281 C 231.738281 115.632812 230.695312 118.894531 228.875 123.890625 Z M 225.46875 121.632812 " fill-opacity="1" fill-rule="nonzero"/><path fill="#fec107" d="M 229.015625 133.925781 C 232.699219 128.507812 238.808594 123.542969 247.347656 119.023438 C 254.605469 115.742188 262.664062 113.777344 271.519531 113.128906 C 273.757812 112.921875 274.527344 113.242188 273.832031 114.089844 L 266.335938 124.015625 C 264.683594 125.960938 262.839844 127.707031 260.804688 129.257812 C 259.523438 130.3125 256.996094 131.214844 253.21875 131.960938 C 251.488281 132.375 247.890625 132.707031 242.421875 132.964844 Z M 229.015625 133.925781 " fill-opacity="1" fill-rule="nonzero"/><path fill="#fec107" d="M 212.574219 167.304688 C 208.867188 159 206.8125 151.265625 206.414062 144.101562 C 206.253906 140.855469 206.410156 137.574219 206.886719 134.253906 C 206.777344 134.121094 207.769531 128.832031 209.867188 118.382812 C 210.046875 121.15625 210.46875 123.277344 211.132812 124.75 C 211.050781 125.09375 213.367188 128.960938 218.085938 136.359375 C 218.996094 138.035156 219.636719 139.644531 220.007812 141.195312 C 220.90625 144.230469 220.492188 148.65625 218.765625 154.472656 Z M 212.574219 167.304688 " fill-opacity="1" fill-rule="nonzero"/><path fill="#fec107" d="M 222.378906 159.269531 C 224.566406 155.945312 228.613281 153.230469 234.515625 151.132812 C 240.992188 148.597656 248.886719 147.046875 258.203125 146.484375 C 256.789062 146.75 254.25 147.941406 250.59375 150.0625 C 250.269531 150.136719 246.238281 152.769531 238.496094 157.96875 C 235.824219 159.621094 233.488281 160.976562 231.484375 162.03125 Z M 222.378906 159.269531 " fill-opacity="1" fill-rule="nonzero"/><path fill="#fec107" d="M 195.09375 203.28125 C 191.125 197.328125 188.574219 191.308594 187.445312 185.226562 C 185.839844 177.078125 185.601562 169.625 186.726562 162.859375 C 188.800781 151.863281 190.222656 147.382812 190.984375 149.421875 C 191.511719 152.082031 191.949219 153.777344 192.300781 154.519531 C 195.09375 160.269531 196.535156 163.410156 196.617188 163.929688 C 197.226562 165.636719 197.65625 167.324219 197.910156 168.992188 C 198.636719 172.386719 198.484375 179.101562 197.453125 189.140625 Z M 195.09375 203.28125 " fill-opacity="1" fill-rule="nonzero"/><path fill="#fec107" d="M 200.324219 206.074219 C 202.558594 200.308594 209.609375 194.472656 221.480469 188.570312 C 224.613281 187.144531 228.527344 185.863281 233.226562 184.730469 C 236.679688 183.898438 239.175781 183.386719 240.714844 183.1875 C 241.457031 183.085938 241.761719 183.238281 241.632812 183.648438 C 237.644531 186.210938 233.367188 189.097656 228.800781 192.308594 C 227.292969 193.300781 225.957031 194.132812 224.792969 194.800781 C 220.929688 197.066406 216.9375 198.945312 212.824219 200.445312 Z M 200.324219 206.074219 " fill-opacity="1" fill-rule="nonzero"/><path fill="#fec107" d="M 185.386719 237.019531 C 181.769531 233.214844 178.871094 226.667969 176.695312 217.378906 C 174.789062 209.347656 173.414062 202.09375 172.574219 195.621094 C 171.511719 187.75 171.25 182.921875 171.785156 181.136719 C 172.183594 180.597656 172.671875 180.566406 173.253906 181.03125 C 173.65625 181.335938 175.515625 183.546875 178.828125 187.667969 C 181.625 191.140625 184.394531 195.425781 187.136719 200.527344 C 190.253906 206.722656 192.066406 214.054688 192.566406 222.53125 Z M 185.386719 237.019531 " fill-opacity="1" fill-rule="nonzero"/><path fill="#fec107" d="M 189.589844 240.207031 C 191.628906 237.734375 194.742188 235.292969 198.925781 232.890625 C 204.304688 229.742188 209.59375 227.296875 214.792969 225.558594 C 217.316406 224.707031 219.964844 224.242188 222.738281 224.164062 C 224.585938 224.144531 226.042969 224.238281 227.097656 224.445312 C 227.667969 224.628906 227.828125 224.910156 227.582031 225.292969 C 222.988281 226.867188 219.761719 228.09375 217.90625 228.972656 C 217.039062 229.285156 213.152344 231.246094 206.246094 234.863281 Z M 189.589844 240.207031 " fill-opacity="1" fill-rule="nonzero"/><path fill="#fec107" d="M 175.605469 266.273438 C 172.078125 261.316406 169.613281 254.964844 168.203125 247.222656 C 167.445312 243.253906 166.945312 238.816406 166.695312 233.90625 C 166.535156 231.144531 166.484375 227.382812 166.53125 222.617188 C 166.523438 220.316406 166.621094 219.308594 166.816406 219.589844 C 166.914062 219.523438 167.054688 219.632812 167.230469 219.917969 C 167.949219 221.820312 168.996094 224.011719 170.382812 226.484375 C 174.839844 234.117188 177.207031 238.246094 177.480469 238.875 C 178.664062 241.125 179.539062 242.9375 180.109375 244.316406 C 182.433594 249.800781 184.070312 255.84375 185.019531 262.449219 Z M 175.605469 266.273438 " fill-opacity="1" fill-rule="nonzero"/><path fill="#fec107" d="M 175.753906 261.425781 C 179.933594 257.808594 187.238281 253.960938 197.660156 249.878906 C 200.894531 248.734375 204.304688 247.886719 207.898438 247.328125 C 212.914062 246.574219 216.023438 246.363281 217.222656 246.703125 C 218.214844 246.921875 218.285156 247.546875 217.429688 248.578125 C 215.335938 251.246094 213.367188 253.3125 211.519531 254.785156 C 209.824219 256.378906 203.359375 260.414062 192.132812 266.890625 Z M 175.753906 261.425781 " fill-opacity="1" fill-rule="nonzero"/><g clip-path="url(#2d613ccb34)"><path fill="#8bc349" d="M 168.84375 326.117188 C 179.679688 291.222656 201.242188 262.078125 233.535156 238.691406 C 267.523438 217.710938 302.078125 208.441406 337.203125 210.878906 C 326.511719 210.214844 310.582031 216.214844 289.410156 228.886719 C 285.324219 231.46875 280.929688 234.796875 276.230469 238.867188 C 259.75 254.828125 247.769531 265.605469 240.285156 271.210938 C 235.199219 275.007812 230.753906 277.988281 226.949219 280.15625 C 205.710938 290.972656 193.421875 297.761719 190.074219 300.523438 C 182.476562 305.808594 177.03125 310.957031 173.742188 315.964844 Z M 168.84375 326.117188 " fill-opacity="1" fill-rule="nonzero"/></g><path fill="#8bc349" d="M 173.042969 325.886719 C 175.578125 300.6875 174.265625 281.128906 169.113281 267.214844 C 152.261719 223.226562 138.511719 198.179688 127.855469 192.070312 C 117.164062 186.261719 91.53125 210.460938 50.957031 264.675781 C 50.203125 266.972656 54.390625 265.972656 63.515625 261.679688 C 91.085938 241.746094 104.8125 232.511719 104.703125 233.976562 C 110.800781 230.972656 116.554688 230.488281 121.964844 232.523438 C 128.003906 234.386719 134.074219 239.554688 140.175781 248.03125 C 152.507812 269.699219 161.777344 284.785156 167.984375 293.28125 C 170.179688 296.957031 172.347656 301.246094 174.488281 306.15625 Z M 173.042969 325.886719 " fill-opacity="1" fill-rule="nonzero"/><path fill="#8bc349" d="M 163.074219 351.464844 C 164.441406 334.09375 159.480469 319.867188 148.191406 308.785156 C 141.082031 302.488281 133.035156 297.449219 124.050781 293.671875 C 119.777344 291.785156 115.535156 290.199219 111.320312 288.914062 C 99.617188 285.632812 93.699219 283.855469 93.558594 283.578125 C 92.824219 283.441406 92.359375 283.535156 92.171875 283.859375 C 94.058594 293.375 96.230469 298.71875 98.679688 299.890625 C 100.417969 301.4375 102.074219 302.523438 103.644531 303.15625 C 114.820312 307.242188 122.296875 310.273438 126.082031 312.25 C 130.6875 314.59375 134.632812 317.046875 137.925781 319.601562 C 149.574219 329.152344 158.234375 339.199219 163.902344 349.734375 Z M 163.074219 351.464844 " fill-opacity="1" fill-rule="nonzero"/><path fill="#69a526" d="M 178.050781 304.566406 C 188.449219 290.671875 206.992188 273.402344 233.679688 252.753906 C 245.488281 243.613281 264.082031 233.605469 289.460938 222.734375 C 290.507812 221.167969 286.757812 222.128906 278.210938 225.613281 C 273.292969 227.839844 266.726562 231.621094 258.507812 236.960938 C 246.660156 244.679688 229.996094 257.566406 208.519531 275.613281 Z M 178.050781 304.566406 " fill-opacity="1" fill-rule="nonzero"/><path fill="#69a526" d="M 58.664062 254.277344 C 60.484375 252.921875 62.089844 251.5625 63.472656 250.199219 C 66.5 247.433594 75.214844 238.949219 89.609375 224.746094 C 92.785156 221.820312 96.273438 218.921875 100.074219 216.054688 C 105.605469 211.21875 111.191406 209.429688 116.828125 210.6875 C 125.496094 211.84375 134.355469 217.808594 143.417969 228.585938 C 149.308594 235.085938 157.910156 249.945312 169.214844 273.160156 C 167.523438 266.867188 161.664062 257.335938 151.636719 244.558594 C 141.160156 230.6875 132.8125 221.949219 126.59375 218.339844 C 117.867188 213.480469 106.328125 216.007812 91.96875 225.929688 Z M 58.664062 254.277344 " fill-opacity="1" fill-rule="nonzero"/><path fill="#69a526" d="M 96.300781 291.433594 C 107.742188 294.847656 119.175781 300.019531 130.589844 306.949219 C 133.257812 308.699219 135.890625 310.917969 138.484375 313.601562 C 139.523438 314.460938 142.75 318.441406 148.171875 325.542969 C 148.851562 326.351562 149.4375 326.851562 149.933594 327.039062 C 151.195312 327.148438 150.902344 325.746094 149.046875 322.832031 C 147.886719 321.058594 145.660156 318.878906 142.371094 316.289062 C 138.554688 312.9375 129.527344 307.351562 115.289062 299.53125 Z M 96.300781 291.433594 " fill-opacity="1" fill-rule="nonzero"/></svg>