<svg xmlns="http://www.w3.org/2000/svg" xmlns:xlink="http://www.w3.org/1999/xlink" width="500" zoomAndPan="magnify" viewBox="0 0 375 374.999991" height="500" preserveAspectRatio="xMidYMid meet" version="1.0"><metadata><ContainsAiGeneratedContent>Yes</ContainsAiGeneratedContent></metadata><defs><clipPath id="8fec5dc4a9"><path d="M 91 37.5 L 177 37.5 L 177 129 L 91 129 Z M 91 37.5 " clip-rule="nonzero"/></clipPath><clipPath id="c5e18d76d0"><path d="M 59.160156 172 L 153 172 L 153 263 L 59.160156 263 Z M 59.160156 172 " clip-rule="nonzero"/></clipPath><clipPath id="28410bf909"><path d="M 243 121 L 329.160156 121 L 329.160156 210 L 243 210 Z M 243 121 " clip-rule="nonzero"/></clipPath><clipPath id="7b68162c3f"><path d="M 267 161 L 329.160156 161 L 329.160156 210 L 267 210 Z M 267 161 " clip-rule="nonzero"/></clipPath></defs><rect x="-37.5" width="450" fill="#ffffff" y="-37.499999" height="449.999989" fill-opacity="1"/><rect x="-37.5" width="450" fill="#ffffff" y="-37.499999" height="449.999989" fill-opacity="1"/><g clip-path="url(#8fec5dc4a9)"><path fill="#d66729" d="M 175.660156 101.34375 C 174.472656 111.980469 170.1875 123.96875 160.089844 127.46875 C 151.800781 130.335938 145.050781 126.796875 137.699219 125.308594 C 135.296875 124.757812 132.808594 124.476562 130.191406 124.714844 C 129.179688 124.796875 128.125 124.980469 127.070312 125.234375 C 126.894531 125.257812 126.683594 125.316406 126.507812 125.375 C 126.292969 125.433594 126.046875 125.488281 125.835938 125.546875 C 115.394531 128.367188 105.121094 130.011719 98.644531 123.5 C 93.746094 118.535156 91.40625 110.691406 91.121094 102.128906 C 90.546875 85.699219 97.386719 66.625 107.601562 60.351562 C 113.539062 56.726562 123.429688 51.964844 125.882812 45.429688 C 126.496094 43.761719 126.667969 41.929688 127.484375 40.378906 C 128.304688 38.792969 130.148438 37.503906 131.816406 38.121094 C 133.582031 38.808594 134.015625 41.023438 134.609375 42.828125 C 136.253906 47.574219 140.800781 50.75 145.414062 52.710938 C 146.402344 53.113281 147.351562 53.480469 148.339844 53.8125 C 152.121094 55.171875 155.988281 56.257812 159.457031 58.1875 C 166.601562 62.132812 171.617188 69.328125 174.03125 77.105469 C 176.480469 84.886719 176.566406 93.230469 175.660156 101.34375 Z M 175.660156 101.34375 " fill-opacity="1" fill-rule="nonzero"/></g><path fill="#dda35c" d="M 175.660156 101.34375 C 174.472656 111.980469 170.1875 123.96875 160.089844 127.46875 C 151.800781 130.335938 145.050781 126.796875 137.699219 125.308594 C 135.296875 124.757812 128.457031 125.3125 125.835938 125.546875 C 125.070312 124.949219 124.539062 123.800781 123.808594 123.171875 C 126.589844 123.777344 133.632812 124.039062 136.53125 124.410156 C 143.945312 125.414062 151.433594 125.105469 157.140625 120.5625 C 161.394531 117.1875 163.804688 112.007812 165.554688 106.859375 C 168.5 98.269531 170.097656 89.046875 168.6875 80.109375 C 167.277344 71.132812 162.554688 62.460938 154.90625 57.550781 C 152.792969 56.214844 150.492188 55.148438 148.375 53.816406 C 152.121094 55.171875 155.988281 56.257812 159.457031 58.1875 C 166.601562 62.132812 171.617188 69.328125 174.03125 77.105469 C 176.480469 84.886719 176.566406 93.230469 175.660156 101.34375 Z M 175.660156 101.34375 " fill-opacity="1" fill-rule="nonzero"/><path fill="#d66729" d="M 110.050781 65.847656 C 104.359375 77.246094 99.203125 89.6875 100.742188 102.335938 C 101.210938 106.167969 102.980469 110.597656 106.78125 111.292969 C 107.167969 111.363281 107.578125 111.386719 107.941406 111.234375 C 108.722656 110.90625 108.964844 109.941406 109.089844 109.105469 C 110.867188 97.167969 108.785156 84.683594 112.300781 73.136719 C 113.222656 70.113281 114.320312 66.300781 110.050781 65.847656 Z M 110.050781 65.847656 " fill-opacity="1" fill-rule="nonzero"/><path fill="#d66729" d="M 162.628906 85.363281 C 162.890625 93.902344 160.441406 102.5 155.726562 109.617188 C 153.988281 112.242188 151.699219 114.828125 148.609375 115.429688 C 147.757812 115.59375 146.792969 115.574219 146.121094 115.019531 C 145.710938 114.679688 145.460938 114.179688 145.304688 113.667969 C 144.765625 111.921875 145.191406 110.003906 145.980469 108.351562 C 146.765625 106.703125 147.890625 105.242188 148.851562 103.683594 C 152.34375 98.027344 153.644531 91.125 157.753906 85.90625 C 158.5 84.957031 159.6875 83.992188 162.628906 85.363281 Z M 162.628906 85.363281 " fill-opacity="1" fill-rule="nonzero"/><path fill="#d66729" d="M 218.984375 96.535156 C 216.800781 101.945312 213.261719 106.664062 209.757812 111.3125 C 205.628906 116.792969 201.433594 122.34375 195.953125 126.503906 C 190.472656 130.667969 183.464844 133.304688 176.734375 132.054688 C 169.101562 130.667969 163.242188 124.804688 157.863281 119.222656 C 152.867188 114.050781 147.910156 108.847656 146.171875 103.160156 C 140 99.308594 137.257812 91.296875 138.265625 84.117188 C 138.785156 80.371094 140.171875 76.832031 142.148438 73.570312 C 143.953125 70.585938 146.207031 67.847656 148.707031 65.417969 C 159.460938 54.941406 175.449219 49.359375 189.984375 53.171875 C 196.578125 54.90625 203.582031 58.445312 209.863281 55.742188 C 212.117188 54.769531 214.890625 53.035156 216.730469 54.664062 C 219.332031 56.886719 215.757812 60.632812 214.476562 63.789062 C 212.566406 68.609375 216.488281 73.292969 218.914062 78.078125 C 219.125 78.566406 219.367188 79.050781 219.574219 79.535156 C 221.863281 84.878906 221.171875 91.121094 218.984375 96.535156 Z M 218.984375 96.535156 " fill-opacity="1" fill-rule="nonzero"/><path fill="#dda35c" d="M 218.984375 96.535156 C 216.800781 101.945312 213.261719 106.664062 209.757812 111.3125 C 205.628906 116.792969 201.433594 122.34375 195.953125 126.503906 C 190.472656 130.667969 183.464844 133.304688 176.734375 132.054688 C 169.101562 130.667969 163.242188 124.804688 157.863281 119.222656 C 152.867188 114.050781 147.910156 108.847656 146.171875 103.160156 C 140 99.308594 137.257812 91.296875 138.265625 84.117188 C 138.785156 80.371094 140.171875 76.832031 142.148438 73.570312 C 140.171875 80.75 143.640625 89.839844 150.925781 91.367188 C 155.957031 92.40625 160.917969 89.734375 165.320312 87.167969 C 161.886719 89.839844 158.28125 92.753906 156.960938 96.882812 C 154.535156 104.511719 161.402344 112.386719 169.066406 114.675781 C 177.878906 117.3125 187.660156 114.886719 195.328125 109.785156 C 202.992188 104.6875 208.785156 97.195312 213.574219 89.355469 C 215.726562 85.816406 217.703125 82 218.914062 78.078125 C 219.125 78.566406 219.367188 79.050781 219.574219 79.535156 C 221.863281 84.878906 221.171875 91.121094 218.984375 96.535156 Z M 218.984375 96.535156 " fill-opacity="1" fill-rule="nonzero"/><path fill="#dda35c" d="M 187.636719 55.09375 C 189.5625 55.945312 190.671875 58.125 190.699219 60.234375 C 190.726562 62.339844 189.835938 64.363281 188.671875 66.121094 C 184.347656 72.648438 176.4375 76.117188 172.101562 82.636719 C 172.933594 83.289062 174.113281 82.5625 174.902344 81.859375 C 180.828125 76.59375 186.753906 71.324219 192.683594 66.058594 C 193.480469 65.347656 194.320312 64.617188 195.355469 64.347656 C 196.304688 64.101562 197.308594 64.277344 198.285156 64.402344 C 199.683594 64.578125 201.097656 64.636719 202.507812 64.585938 C 203.800781 64.535156 205.386719 64.140625 205.675781 62.882812 C 205.972656 61.582031 204.539062 60.480469 203.210938 60.367188 C 201.882812 60.257812 200.570312 60.738281 199.238281 60.710938 C 196.417969 60.652344 194.195312 58.433594 192.125 56.519531 C 190.796875 55.289062 188.988281 54.050781 187.636719 55.09375 Z M 187.636719 55.09375 " fill-opacity="1" fill-rule="nonzero"/><path fill="#d66729" d="M 205.734375 88.699219 C 200.957031 97.402344 192.597656 104.066406 183.050781 106.789062 C 180.121094 107.621094 176.84375 108.066406 174.132812 106.679688 C 173.578125 106.398438 173.035156 106.011719 172.789062 105.441406 C 172.308594 104.320312 173.171875 103.074219 174.132812 102.320312 C 177.765625 99.460938 182.933594 99.734375 187.179688 97.902344 C 191.96875 95.84375 195.175781 91.328125 199.269531 88.105469 C 201.355469 86.464844 204.394531 85.160156 205.734375 88.699219 Z M 205.734375 88.699219 " fill-opacity="1" fill-rule="nonzero"/><path fill="#d66729" d="M 161.792969 62.335938 C 158.09375 64.542969 154.742188 67.324219 151.894531 70.558594 C 150.238281 72.441406 148.730469 74.523438 148.003906 76.921875 C 147.515625 78.546875 147.570312 80.640625 149.011719 81.535156 C 150.015625 82.160156 151.351562 81.941406 152.390625 81.371094 C 155.464844 79.683594 156.320312 75.773438 157.851562 72.617188 C 158.867188 70.515625 160.296875 68.621094 162.035156 67.0625 C 162.867188 66.320312 163.792969 65.625 164.320312 64.636719 C 164.847656 63.652344 164.824219 62.253906 161.792969 62.335938 Z M 161.792969 62.335938 " fill-opacity="1" fill-rule="nonzero"/><path fill="#d66729" d="M 178.800781 183.699219 C 176.367188 188.382812 172.742188 192.832031 167.714844 194.464844 C 159.414062 197.164062 150.859375 191.503906 142.1875 190.566406 C 135.878906 189.90625 129.515625 191.738281 123.265625 190.84375 C 115.925781 189.742188 109.3125 184.605469 106.457031 177.765625 C 104.808594 173.808594 104.371094 169.441406 104.167969 165.132812 C 103.871094 159.515625 103.921875 153.910156 104.011719 148.316406 C 104.035156 143.816406 104.105469 139.289062 105.238281 134.925781 C 107.097656 128.128906 111.59375 122.214844 117.429688 118.214844 C 117.878906 117.863281 118.359375 117.519531 118.863281 117.214844 C 125.347656 113.199219 133.09375 111.433594 140.730469 111.496094 C 141.054688 110.648438 142.78125 109.1875 144.902344 108.578125 C 147 107.925781 149.605469 108.367188 150.863281 110.1875 C 151.8125 111.535156 151.875 113.414062 152.867188 114.734375 C 154.082031 116.292969 156.277344 116.667969 158.1875 117.1875 C 165.710938 119.261719 171.253906 125.667969 175.210938 132.390625 C 178.136719 137.382812 180.4375 142.867188 181.875 148.523438 C 184.945312 160.316406 184.40625 172.953125 178.800781 183.699219 Z M 178.800781 183.699219 " fill-opacity="1" fill-rule="nonzero"/><path fill="#dda35c" d="M 178.800781 183.699219 C 176.367188 188.382812 172.742188 192.832031 167.714844 194.464844 C 159.414062 197.164062 150.859375 191.503906 142.1875 190.566406 C 135.878906 189.90625 129.515625 191.738281 123.265625 190.84375 C 115.925781 189.742188 109.3125 184.605469 106.457031 177.765625 C 104.808594 173.808594 104.371094 169.441406 104.167969 165.132812 C 103.871094 159.515625 103.921875 153.910156 104.011719 148.316406 C 104.035156 143.816406 104.105469 139.289062 105.238281 134.925781 C 107.097656 128.128906 111.59375 122.214844 117.429688 118.214844 C 117.144531 118.5 116.925781 118.804688 116.695312 119.140625 C 114.984375 121.675781 114.0625 124.628906 113.324219 127.554688 C 110.558594 138.949219 110.703125 150.863281 111.695312 162.523438 C 112.089844 166.773438 112.578125 171.082031 114.3125 174.988281 C 116.054688 178.863281 119.261719 182.320312 123.359375 183.386719 C 129.402344 184.949219 135.855469 181.207031 141.925781 182.667969 C 145.164062 183.449219 147.902344 185.640625 150.972656 186.953125 C 154.660156 188.488281 159.019531 188.660156 162.632812 186.957031 C 167.441406 184.628906 170.117188 179.542969 172.433594 174.761719 C 176.445312 166.363281 180.257812 157.632812 181.875 148.523438 C 184.945312 160.316406 184.40625 172.953125 178.800781 183.699219 Z M 178.800781 183.699219 " fill-opacity="1" fill-rule="nonzero"/><path fill="#dda35c" d="M 141.238281 151.929688 C 141.085938 145.800781 140.949219 139.550781 142.699219 133.671875 C 144.449219 127.796875 148.429688 122.246094 154.210938 120.203125 C 154.59375 120.066406 155.015625 119.917969 155.207031 119.5625 C 155.394531 119.21875 155.292969 118.773438 155.058594 118.457031 C 154.292969 117.429688 152.6875 117.734375 151.519531 118.261719 C 150.347656 118.792969 148.972656 119.4375 147.863281 118.789062 C 147.480469 118.5625 147.191406 118.207031 146.832031 117.949219 C 146.128906 117.445312 145.226562 117.34375 144.367188 117.261719 C 143.054688 117.136719 141.742188 117.011719 140.433594 116.886719 C 139.953125 116.839844 139.445312 116.796875 139.007812 117 C 138.066406 117.4375 137.933594 118.695312 137.941406 119.730469 C 138.015625 131.296875 139.09375 142.855469 141.238281 151.929688 Z M 141.238281 151.929688 " fill-opacity="1" fill-rule="nonzero"/><path fill="#d66729" d="M 116.257812 156.273438 C 116.75 150.378906 116 144.4375 116.34375 138.53125 C 116.6875 132.625 118.332031 126.4375 122.664062 122.410156 C 123.261719 121.855469 124.023438 121.316406 124.816406 121.492188 C 125.65625 121.675781 126.128906 122.570312 126.320312 123.410156 C 127.132812 126.96875 124.933594 130.417969 123.636719 133.832031 C 120.734375 141.484375 122.320312 150.042969 121.28125 158.160156 C 121.164062 159.085938 120.953125 160.109375 120.191406 160.652344 C 119.433594 161.195312 115.863281 161.042969 116.257812 156.273438 Z M 116.257812 156.273438 " fill-opacity="1" fill-rule="nonzero"/><path fill="#d66729" d="M 175.167969 148.816406 C 174.136719 155.324219 172.246094 161.695312 169.558594 167.710938 C 167.5 172.316406 164.859375 176.847656 160.789062 179.824219 C 159.109375 181.054688 156.675781 181.949219 155.058594 180.644531 C 153.15625 179.101562 154.066406 176.070312 155.132812 173.867188 C 157.558594 168.863281 159.980469 163.855469 162.40625 158.851562 C 163.785156 156.003906 165.164062 153.15625 166.546875 150.308594 C 167.355469 148.636719 168.234375 146.882812 169.796875 145.878906 C 171.359375 144.875 175.796875 144.832031 175.167969 148.816406 Z M 175.167969 148.816406 " fill-opacity="1" fill-rule="nonzero"/><path fill="#d66729" d="M 255.640625 120.628906 C 259.78125 116.785156 266.351562 117.878906 271.746094 119.542969 C 277.144531 121.210938 283.230469 123.15625 288.175781 120.429688 C 292.039062 118.300781 293.988281 113.914062 295.558594 109.792969 C 299.703125 98.90625 303.085938 87.21875 301.164062 75.730469 C 299.242188 64.246094 290.625 53.152344 279.046875 51.867188 C 274.972656 51.414062 270.351562 52.015625 267.242188 49.34375 C 264.785156 47.230469 262.453125 43.070312 259.609375 44.625 C 257.851562 45.589844 257.835938 48.097656 256.765625 49.792969 C 254.992188 52.613281 250.988281 52.542969 247.742188 53.285156 C 241.855469 54.625 237.402344 59.433594 234.046875 64.453125 C 228.035156 73.445312 224.242188 84.328125 225.542969 95.066406 C 226.847656 105.808594 233.957031 116.148438 244.277344 119.398438 C 248.226562 120.644531 252.699219 120.789062 255.640625 120.628906 Z M 255.640625 120.628906 " fill-opacity="1" fill-rule="nonzero"/><path fill="#d66729" d="M 245.183594 61.304688 C 238.074219 68.015625 233.636719 77.476562 233.019531 87.230469 C 232.824219 90.316406 233.007812 93.476562 234.097656 96.367188 C 234.699219 97.960938 236.070312 99.691406 237.726562 99.292969 C 239.160156 98.949219 239.742188 97.234375 239.878906 95.769531 C 240.375 90.394531 238.152344 84.851562 239.667969 79.671875 C 241.457031 73.5625 248.089844 69.371094 248.585938 63.023438 C 248.65625 62.121094 247.9375 60.847656 245.183594 61.304688 Z M 245.183594 61.304688 " fill-opacity="1" fill-rule="nonzero"/><path fill="#d66729" d="M 266.230469 100.050781 C 267.117188 92.789062 267.089844 85.414062 266.140625 78.160156 C 265.574219 73.832031 264.691406 69.347656 265.972656 65.175781 C 266.945312 62.003906 269.183594 59.238281 272.078125 57.621094 C 273.492188 56.832031 275.230469 56.316406 276.71875 56.949219 C 278.597656 57.75 279.347656 60.117188 279.046875 62.136719 C 278.742188 64.15625 277.652344 65.953125 276.773438 67.796875 C 272.332031 77.136719 273.296875 88.070312 271.027344 98.164062 C 270.796875 99.179688 270.511719 100.234375 269.8125 101.007812 C 269.109375 101.777344 267.863281 102.152344 266.226562 100.050781 Z M 266.230469 100.050781 " fill-opacity="1" fill-rule="nonzero"/><path fill="#d66729" d="M 298.449219 76.601562 C 298.894531 84.679688 297.828125 92.839844 295.316406 100.527344 C 293.949219 104.714844 292.105469 108.839844 289.128906 112.082031 C 286.148438 115.320312 281.882812 117.59375 277.488281 117.367188 C 277.234375 116.886719 277.234375 116.285156 277.484375 115.804688 C 279.449219 116.464844 281.382812 114.796875 282.714844 113.207031 C 290.484375 103.929688 295.214844 92.152344 298.449219 76.601562 Z M 298.449219 76.601562 " fill-opacity="1" fill-rule="nonzero"/><path fill="#dda35c" d="M 221.894531 181.410156 C 221.546875 182.796875 217.363281 181.542969 216.945312 182.898438 C 216.773438 182.933594 216.566406 183 216.390625 183.070312 C 216.183594 183.140625 215.941406 183.210938 215.734375 183.277344 C 205.464844 186.679688 195.300781 188.898438 188.46875 182.757812 C 183.300781 178.074219 180.523438 170.375 179.761719 161.839844 C 181.667969 168.535156 185.414062 174.640625 191.171875 178.492188 C 197.730469 182.863281 206.4375 183.695312 213.753906 180.953125 C 215.28125 180.363281 220.542969 182.277344 221.894531 181.410156 Z M 221.894531 181.410156 " fill-opacity="1" fill-rule="nonzero"/><path fill="#d66729" d="M 266.90625 334.375 C 258.21875 340.621094 246.445312 345.472656 237.082031 340.324219 C 229.394531 336.09375 227.5 328.710938 223.679688 322.253906 C 222.480469 320.101562 221.023438 318.070312 219.09375 316.285156 C 218.351562 315.589844 217.511719 314.929688 216.613281 314.316406 C 216.480469 314.203125 216.292969 314.085938 216.132812 313.992188 C 215.945312 313.875 215.738281 313.730469 215.554688 313.609375 C 206.464844 307.75 198.359375 301.226562 198.851562 292.054688 C 199.253906 285.089844 203.511719 278.097656 209.675781 272.148438 C 221.488281 260.714844 240.226562 253.007812 251.730469 256.390625 C 258.402344 258.367188 268.5625 262.519531 275.054688 259.960938 C 276.703125 259.296875 278.179688 258.199219 279.878906 257.765625 C 281.605469 257.308594 283.796875 257.816406 284.457031 259.464844 C 285.128906 261.242188 283.777344 263.042969 282.835938 264.695312 C 280.414062 269.097656 281.105469 274.597656 282.742188 279.339844 C 283.101562 280.339844 283.46875 281.292969 283.882812 282.25 C 285.40625 285.964844 287.191406 289.5625 288.082031 293.433594 C 289.941406 301.378906 287.964844 309.921875 283.804688 316.925781 C 279.671875 323.957031 273.535156 329.613281 266.90625 334.375 Z M 266.90625 334.375 " fill-opacity="1" fill-rule="nonzero"/><path fill="#dda35c" d="M 266.90625 334.375 C 258.21875 340.621094 246.445312 345.472656 237.082031 340.324219 C 229.394531 336.09375 227.5 328.710938 223.679688 322.253906 C 222.480469 320.101562 217.484375 315.398438 215.554688 313.609375 C 215.488281 312.640625 215.980469 311.480469 215.960938 310.515625 C 217.371094 312.984375 221.898438 318.386719 223.566406 320.789062 C 227.785156 326.964844 233.035156 332.316406 240.234375 333.507812 C 245.589844 334.402344 251.046875 332.722656 256.042969 330.570312 C 264.394531 327 272.308594 322.003906 277.996094 314.96875 C 283.714844 307.914062 286.984375 298.59375 285.507812 289.628906 C 285.082031 287.164062 284.332031 284.738281 283.90625 282.277344 C 285.40625 285.964844 287.191406 289.5625 288.082031 293.433594 C 289.941406 301.378906 287.964844 309.921875 283.804688 316.925781 C 279.671875 323.957031 273.535156 329.613281 266.90625 334.375 Z M 266.90625 334.375 " fill-opacity="1" fill-rule="nonzero"/><path fill="#d66729" d="M 249.292969 261.890625 C 237.019531 265.300781 224.324219 269.8125 215.972656 279.429688 C 213.4375 282.347656 211.335938 286.628906 213.367188 289.914062 C 213.574219 290.25 213.832031 290.570312 214.1875 290.738281 C 214.953125 291.097656 215.832031 290.628906 216.539062 290.160156 C 226.589844 283.484375 234.460938 273.570312 245.386719 268.445312 C 248.25 267.105469 251.816406 265.363281 249.292969 261.890625 Z M 249.292969 261.890625 " fill-opacity="1" fill-rule="nonzero"/><path fill="#d66729" d="M 270.035156 313.996094 C 263.875 319.910156 255.851562 323.855469 247.40625 325.125 C 244.296875 325.59375 240.84375 325.625 238.324219 323.734375 C 237.628906 323.214844 237 322.484375 236.960938 321.613281 C 236.9375 321.082031 237.144531 320.5625 237.417969 320.101562 C 238.351562 318.53125 240.0625 317.5625 241.816406 317.039062 C 243.566406 316.519531 245.40625 316.375 247.207031 316.046875 C 253.742188 314.847656 259.738281 311.1875 266.367188 310.738281 C 267.570312 310.660156 269.082031 310.894531 270.035156 313.996094 Z M 270.035156 313.996094 " fill-opacity="1" fill-rule="nonzero"/><path fill="#d66729" d="M 264.125 156.324219 C 263.535156 167.011719 259.925781 179.21875 250.039062 183.277344 C 241.921875 186.609375 234.984375 183.453125 227.5625 182.378906 C 225.132812 181.960938 222.636719 181.820312 220.035156 182.203125 C 219.027344 182.34375 217.988281 182.585938 216.945312 182.898438 C 216.773438 182.933594 216.566406 183 216.390625 183.070312 C 216.183594 183.140625 215.941406 183.210938 215.734375 183.277344 C 205.464844 186.679688 195.300781 188.898438 188.46875 182.757812 C 183.300781 178.074219 180.523438 170.375 179.761719 161.839844 C 178.269531 145.46875 184.027344 126.042969 193.878906 119.207031 C 199.601562 115.253906 209.210938 109.945312 211.292969 103.285156 C 211.8125 101.585938 211.882812 99.75 212.609375 98.152344 C 213.339844 96.523438 215.109375 95.136719 216.808594 95.65625 C 218.613281 96.246094 219.167969 98.429688 219.859375 100.199219 C 221.769531 104.847656 226.488281 107.761719 231.203125 109.460938 C 232.210938 109.808594 233.179688 110.121094 234.1875 110.398438 C 238.039062 111.542969 241.957031 112.410156 245.53125 114.144531 C 252.882812 117.683594 258.296875 124.585938 261.140625 132.21875 C 264.019531 139.847656 264.574219 148.175781 264.125 156.324219 Z M 264.125 156.324219 " fill-opacity="1" fill-rule="nonzero"/><path fill="#dda35c" d="M 264.125 156.324219 C 263.535156 167.011719 259.925781 179.21875 250.039062 183.277344 C 241.921875 186.609375 234.984375 183.453125 227.5625 182.378906 C 225.132812 181.960938 218.335938 182.898438 215.734375 183.277344 C 214.933594 182.722656 214.339844 181.609375 213.578125 181.019531 C 216.386719 181.472656 223.433594 181.335938 226.347656 181.542969 C 233.804688 182.132812 241.265625 181.40625 246.710938 176.550781 C 250.769531 172.941406 252.882812 167.632812 254.339844 162.394531 C 256.804688 153.65625 257.878906 144.359375 255.972656 135.511719 C 254.0625 126.632812 248.859375 118.238281 240.953125 113.761719 C 238.765625 112.546875 236.40625 111.613281 234.222656 110.398438 C 238.039062 111.542969 241.957031 112.410156 245.53125 114.144531 C 252.882812 117.683594 258.296875 124.585938 261.140625 132.21875 C 264.019531 139.847656 264.574219 148.175781 264.125 156.324219 Z M 264.125 156.324219 " fill-opacity="1" fill-rule="nonzero"/><path fill="#dda35c" d="M 224.496094 111.9375 C 221.03125 113.5 218.769531 117.027344 217.804688 120.703125 C 216.835938 124.382812 216.980469 128.246094 217.128906 132.046875 C 217.601562 143.996094 218.070312 155.945312 218.542969 167.894531 C 216.863281 157.019531 215.179688 146.140625 213.5 135.265625 C 213.035156 132.269531 212.570312 129.261719 211.714844 126.355469 C 210.773438 123.164062 209.367188 120.109375 207.546875 117.324219 C 207.101562 116.644531 206.621094 115.945312 206.511719 115.136719 C 206.402344 114.332031 206.8125 113.386719 207.605469 113.199219 C 208.117188 113.082031 208.640625 113.296875 209.164062 113.332031 C 210.769531 113.433594 211.929688 111.925781 213.109375 110.832031 C 215.785156 108.347656 219.957031 107.625 223.3125 109.066406 C 224.03125 109.375 224.757812 109.820312 225.070312 110.535156 C 225.382812 111.253906 225.0625 112.273438 224.496094 111.9375 Z M 224.496094 111.9375 " fill-opacity="1" fill-rule="nonzero"/><path fill="#d66729" d="M 196.628906 124.554688 C 191.585938 136.253906 187.132812 148.96875 189.378906 161.507812 C 190.0625 165.3125 192.074219 169.632812 195.910156 170.113281 C 196.300781 170.164062 196.710938 170.164062 197.066406 169.992188 C 197.824219 169.621094 198.011719 168.640625 198.089844 167.800781 C 199.199219 155.78125 196.421875 143.433594 199.285156 131.710938 C 200.035156 128.640625 200.917969 124.773438 196.628906 124.554688 Z M 196.628906 124.554688 " fill-opacity="1" fill-rule="nonzero"/><path fill="#d66729" d="M 250.21875 141.101562 C 250.957031 149.609375 248.996094 158.332031 244.683594 165.703125 C 243.097656 168.417969 240.953125 171.128906 237.90625 171.902344 C 237.0625 172.117188 236.097656 172.148438 235.398438 171.632812 C 234.964844 171.316406 234.691406 170.832031 234.503906 170.332031 C 233.867188 168.617188 234.1875 166.675781 234.878906 164.984375 C 235.574219 163.292969 236.617188 161.769531 237.488281 160.164062 C 240.65625 154.320312 241.570312 147.355469 245.382812 141.914062 C 246.074219 140.925781 247.207031 139.894531 250.21875 141.101562 Z M 250.21875 141.101562 " fill-opacity="1" fill-rule="nonzero"/><g clip-path="url(#c5e18d76d0)"><path fill="#d66729" d="M 137.101562 183.265625 C 145.894531 189.367188 154.402344 198.839844 152.679688 209.386719 C 151.261719 218.042969 144.9375 222.300781 140.128906 228.058594 C 138.503906 229.90625 137.078125 231.960938 136.039062 234.378906 C 135.628906 235.308594 135.289062 236.320312 135.011719 237.371094 C 134.949219 237.535156 134.898438 237.75 134.867188 237.933594 C 134.816406 238.148438 134.75 238.390625 134.699219 238.605469 C 132.214844 249.132812 128.777344 258.953125 119.96875 261.554688 C 113.269531 263.5 105.257812 261.828125 97.589844 258.007812 C 82.863281 250.699219 69.335938 235.613281 68.679688 223.640625 C 68.3125 216.695312 68.824219 205.730469 64.246094 200.464844 C 63.070312 199.132812 61.539062 198.109375 60.5625 196.652344 C 59.554688 195.179688 59.300781 192.945312 60.636719 191.769531 C 62.082031 190.542969 64.234375 191.214844 66.105469 191.550781 C 71.0625 192.363281 76.019531 189.871094 79.9375 186.746094 C 80.761719 186.070312 81.535156 185.40625 82.296875 184.695312 C 85.292969 182.015625 88.085938 179.132812 91.433594 176.996094 C 98.300781 172.585938 107.015625 171.597656 115.007812 173.171875 C 123.015625 174.71875 130.398438 178.609375 137.101562 183.265625 Z M 137.101562 183.265625 " fill-opacity="1" fill-rule="nonzero"/></g><path fill="#dda35c" d="M 137.101562 183.265625 C 145.894531 189.367188 154.402344 198.839844 152.679688 209.386719 C 151.261719 218.042969 144.9375 222.300781 140.128906 228.058594 C 138.503906 229.90625 135.738281 236.191406 134.699219 238.605469 C 133.808594 238.992188 132.546875 238.917969 131.644531 239.257812 C 133.503906 237.101562 137.082031 231.027344 138.785156 228.65625 C 143.195312 222.613281 146.484375 215.878906 145.203125 208.695312 C 144.253906 203.347656 140.84375 198.765625 137.148438 194.777344 C 130.992188 188.101562 123.636719 182.3125 115.105469 179.300781 C 106.542969 176.273438 96.664062 176.304688 88.710938 180.695312 C 86.53125 181.921875 84.496094 183.441406 82.316406 184.664062 C 85.292969 182.015625 88.085938 179.132812 91.433594 176.996094 C 98.300781 172.585938 107.015625 171.597656 115.007812 173.171875 C 123.015625 174.71875 130.398438 178.609375 137.101562 183.265625 Z M 137.101562 183.265625 " fill-opacity="1" fill-rule="nonzero"/><path fill="#dda35c" d="M 78.535156 193.753906 C 78.046875 197.523438 79.867188 201.300781 82.492188 204.050781 C 85.117188 206.800781 88.484375 208.703125 91.796875 210.566406 C 102.21875 216.429688 112.644531 222.289062 123.070312 228.148438 C 112.925781 223.882812 102.78125 219.613281 92.636719 215.34375 C 89.84375 214.167969 87.039062 212.988281 84.113281 212.195312 C 80.902344 211.324219 77.5625 210.925781 74.238281 211.015625 C 73.425781 211.035156 72.574219 211.082031 71.832031 210.75 C 71.085938 210.421875 70.496094 209.574219 70.753906 208.800781 C 70.921875 208.304688 71.378906 207.972656 71.683594 207.542969 C 72.613281 206.230469 71.9375 204.449219 71.621094 202.875 C 70.910156 199.292969 72.480469 195.359375 75.464844 193.257812 C 76.105469 192.804688 76.863281 192.421875 77.640625 192.53125 C 78.414062 192.644531 79.113281 193.449219 78.535156 193.753906 Z M 78.535156 193.753906 " fill-opacity="1" fill-rule="nonzero"/><path fill="#d66729" d="M 74.675781 224.101562 C 81.996094 234.527344 90.488281 244.984375 102.347656 249.640625 C 105.941406 251.054688 110.679688 251.601562 113.097656 248.589844 C 113.34375 248.285156 113.5625 247.933594 113.601562 247.539062 C 113.683594 246.699219 112.949219 246.027344 112.273438 245.519531 C 102.617188 238.277344 90.644531 234.171875 82.160156 225.589844 C 79.9375 223.339844 77.105469 220.5625 74.675781 224.101562 Z M 74.675781 224.101562 " fill-opacity="1" fill-rule="nonzero"/><path fill="#d66729" d="M 116.847656 187.128906 C 124.480469 190.960938 130.882812 197.203125 134.902344 204.734375 C 136.382812 207.511719 137.566406 210.757812 136.628906 213.761719 C 136.371094 214.589844 135.890625 215.425781 135.085938 215.753906 C 134.589844 215.957031 134.03125 215.9375 133.507812 215.832031 C 131.714844 215.472656 130.230469 214.1875 129.152344 212.710938 C 128.074219 211.234375 127.324219 209.546875 126.414062 207.960938 C 123.097656 202.203125 117.644531 197.773438 115.003906 191.675781 C 114.527344 190.570312 114.242188 189.066406 116.847656 187.128906 Z M 116.847656 187.128906 " fill-opacity="1" fill-rule="nonzero"/><path fill="#d66729" d="M 188.226562 171.398438 C 198.941406 169.972656 211.101562 175.375 214.558594 185.59375 C 214.964844 186.8125 215.230469 188.039062 215.507812 189.300781 C 215.9375 191.242188 216.289062 193.171875 217.050781 195.003906 C 217.09375 195.136719 217.167969 195.253906 217.214844 195.386719 C 218.960938 199.300781 222.355469 202.117188 225.453125 205.140625 C 226.648438 206.3125 227.792969 207.539062 228.75 208.867188 C 235.703125 218.390625 232.652344 233.75 221.210938 242.410156 C 213.910156 247.925781 206.152344 253.15625 197.398438 255.972656 L 196.90625 256.140625 C 187.992188 258.902344 177.789062 258.808594 169.753906 254.035156 C 164.300781 250.847656 159.300781 245.425781 153.003906 245.957031 C 149.988281 246.238281 146.273438 247.699219 144.328125 245.386719 C 141.800781 242.320312 146.105469 238.464844 148.089844 234.984375 C 151.109375 229.691406 148.226562 223.160156 147.582031 217.082031 C 147.171875 213.234375 147.707031 209.46875 148.910156 205.847656 C 151.136719 199.066406 155.726562 192.773438 160.765625 187.503906 C 168.25 179.695312 177.519531 172.859375 188.226562 171.398438 Z M 188.226562 171.398438 " fill-opacity="1" fill-rule="nonzero"/><path fill="#dda35c" d="M 215.507812 189.300781 C 215.9375 191.242188 216.289062 193.171875 217.050781 195.003906 C 217.09375 195.136719 217.167969 195.253906 217.214844 195.386719 C 218.960938 199.300781 222.355469 202.117188 225.453125 205.140625 C 226.648438 206.3125 227.792969 207.539062 228.75 208.867188 C 227.222656 208.789062 225.664062 208.617188 224.117188 208.476562 C 220.378906 208.117188 216.679688 207.894531 213.148438 209.039062 C 210.246094 209.972656 207.703125 211.777344 205.222656 213.558594 C 198.738281 218.214844 192.203125 222.851562 185.714844 227.511719 C 190.820312 222.109375 196.136719 217.769531 201.210938 213.144531 C 203.816406 210.773438 206.347656 208.277344 208.265625 205.371094 C 209.820312 203.019531 210.921875 200.417969 211.941406 197.773438 C 213.066406 194.910156 214.105469 192 215.507812 189.300781 Z M 215.507812 189.300781 " fill-opacity="1" fill-rule="nonzero"/><path fill="#dda35c" d="M 188.226562 171.398438 C 198.941406 169.972656 211.101562 175.375 214.558594 185.59375 C 214.964844 186.8125 215.230469 188.039062 215.507812 189.300781 C 215.9375 191.242188 216.289062 193.171875 217.050781 195.003906 C 215.625 197.855469 213.414062 200.976562 210.074219 204.433594 C 211.101562 202.371094 211.722656 200.078125 211.941406 197.773438 C 212.753906 190.367188 209.640625 182.484375 202.835938 179.75 C 194.890625 176.558594 186.109375 181.144531 178.753906 185.617188 C 173.953125 188.539062 169.152344 191.464844 164.351562 194.386719 C 159.089844 197.574219 153.785156 200.851562 149.46875 205.222656 C 149.28125 205.429688 149.082031 205.605469 148.910156 205.847656 C 151.136719 199.066406 155.726562 192.773438 160.765625 187.503906 C 168.25 179.695312 177.519531 172.859375 188.226562 171.398438 Z M 188.226562 171.398438 " fill-opacity="1" fill-rule="nonzero"/><path fill="#dda35c" d="M 222.589844 205.441406 C 223.445312 205.152344 224.398438 205.054688 225.453125 205.140625 C 226.648438 206.3125 227.792969 207.539062 228.75 208.867188 C 235.703125 218.390625 232.652344 233.75 221.210938 242.410156 C 213.910156 247.925781 206.152344 253.15625 197.398438 255.972656 C 205.789062 252.179688 213.515625 246.960938 219.023438 239.703125 C 225.660156 230.898438 228.320312 218.519531 224.117188 208.476562 C 223.699219 207.445312 223.171875 206.414062 222.589844 205.441406 Z M 222.589844 205.441406 " fill-opacity="1" fill-rule="nonzero"/><path fill="#d66729" d="M 210.769531 237.699219 C 206.421875 243.324219 199.882812 246.820312 193.285156 249.484375 C 189.367188 251.066406 185.246094 252.4375 181.019531 252.351562 C 176.792969 252.269531 172.398438 250.496094 170.101562 246.945312 C 169.820312 246.511719 169.566406 246.023438 169.617188 245.511719 C 169.671875 244.90625 170.136719 244.425781 170.617188 244.058594 C 174.417969 241.164062 179.785156 242.699219 184.5625 242.636719 C 192.296875 242.535156 199.136719 237.949219 206.308594 235.042969 C 207.910156 234.394531 210.351562 234.210938 210.769531 237.699219 Z M 210.769531 237.699219 " fill-opacity="1" fill-rule="nonzero"/><path fill="#d66729" d="M 166.835938 199.515625 C 172.777344 196.25 178.71875 192.984375 184.660156 189.714844 C 189.464844 187.074219 195.117188 184.363281 200.199219 186.421875 C 201.597656 186.988281 202.949219 188.050781 203.214844 189.53125 C 203.503906 191.164062 202.359375 192.765625 200.929688 193.605469 C 199.5 194.445312 197.824219 194.71875 196.214844 195.128906 C 187.082031 197.445312 179.167969 204.480469 169.746094 204.4375 C 168.8125 204.433594 167.816406 204.332031 167.089844 203.742188 C 166.367188 203.152344 166.109375 201.917969 166.835938 199.515625 Z M 166.835938 199.515625 " fill-opacity="1" fill-rule="nonzero"/><g clip-path="url(#28410bf909)"><path fill="#d66729" d="M 302.714844 206.601562 C 293.007812 211.359375 279.761719 210.101562 273.234375 201.511719 C 272.460938 200.488281 271.820312 199.40625 271.160156 198.296875 C 270.132812 196.59375 269.1875 194.875 267.882812 193.382812 C 267.800781 193.269531 267.6875 193.179688 267.605469 193.070312 C 264.703125 189.914062 260.589844 188.324219 256.695312 186.441406 C 255.1875 185.710938 253.714844 184.910156 252.386719 183.957031 C 242.761719 177.136719 240.777344 161.601562 248.871094 149.757812 C 254.039062 142.207031 259.734375 134.78125 267.136719 129.328125 L 267.550781 129.015625 C 275.125 123.558594 284.828125 120.410156 293.964844 122.378906 C 300.148438 123.667969 306.613281 127.222656 312.410156 124.714844 C 315.183594 123.492188 318.242188 120.921875 320.820312 122.496094 C 324.191406 124.601562 321.335938 129.628906 320.5625 133.554688 C 319.378906 139.535156 324.1875 144.8125 326.730469 150.371094 C 328.34375 153.890625 329.035156 157.625 329.042969 161.441406 C 329.085938 168.582031 326.734375 176.003906 323.632812 182.605469 C 319.019531 192.386719 312.398438 201.8125 302.714844 206.601562 Z M 302.714844 206.601562 " fill-opacity="1" fill-rule="nonzero"/></g><path fill="#dda35c" d="M 271.160156 198.296875 C 270.132812 196.59375 269.1875 194.875 267.882812 193.382812 C 267.800781 193.269531 267.6875 193.179688 267.605469 193.070312 C 264.703125 189.914062 260.589844 188.324219 256.695312 186.441406 C 255.1875 185.710938 253.714844 184.910156 252.386719 183.957031 C 253.855469 183.542969 255.386719 183.210938 256.898438 182.855469 C 260.558594 182.003906 264.136719 181.042969 267.121094 178.835938 C 269.578125 177.023438 271.414062 174.507812 273.199219 172.03125 C 277.871094 165.554688 282.589844 159.082031 287.261719 152.601562 C 284.136719 159.347656 280.476562 165.148438 277.136719 171.148438 C 275.417969 174.226562 273.8125 177.394531 272.917969 180.761719 C 272.191406 183.484375 271.96875 186.300781 271.847656 189.132812 C 271.6875 192.203125 271.628906 195.292969 271.160156 198.296875 Z M 271.160156 198.296875 " fill-opacity="1" fill-rule="nonzero"/><g clip-path="url(#7b68162c3f)"><path fill="#dda35c" d="M 302.714844 206.601562 C 293.007812 211.359375 279.761719 210.101562 273.234375 201.511719 C 272.460938 200.488281 271.820312 199.40625 271.160156 198.296875 C 270.132812 196.59375 269.1875 194.875 267.882812 193.382812 C 268.324219 190.222656 269.433594 186.5625 271.5 182.222656 C 271.179688 184.503906 271.320312 186.878906 271.847656 189.132812 C 273.429688 196.410156 278.886719 202.894531 286.207031 203.324219 C 294.757812 203.828125 301.625 196.691406 307.175781 190.109375 C 310.800781 185.8125 314.421875 181.515625 318.046875 177.214844 C 322.019531 172.523438 326.011719 167.730469 328.714844 162.214844 C 328.824219 161.957031 328.957031 161.726562 329.042969 161.441406 C 329.085938 168.582031 326.734375 176.003906 323.632812 182.605469 C 319.019531 192.386719 312.398438 201.8125 302.714844 206.601562 Z M 302.714844 206.601562 " fill-opacity="1" fill-rule="nonzero"/></g><path fill="#dda35c" d="M 259.3125 185.246094 C 258.59375 185.792969 257.71875 186.1875 256.695312 186.441406 C 255.1875 185.710938 253.714844 184.910156 252.386719 183.957031 C 242.761719 177.136719 240.777344 161.601562 248.871094 149.757812 C 254.039062 142.207031 259.734375 134.78125 267.136719 129.328125 C 260.390625 135.589844 254.722656 142.996094 251.804688 151.628906 C 248.3125 162.085938 249.722656 174.667969 256.898438 182.855469 C 257.621094 183.699219 258.449219 184.507812 259.3125 185.246094 Z M 259.3125 185.246094 " fill-opacity="1" fill-rule="nonzero"/><path fill="#d66729" d="M 260.265625 150.90625 C 262.601562 144.1875 267.691406 138.796875 273.097656 134.175781 C 276.3125 131.425781 279.78125 128.816406 283.816406 127.554688 C 287.851562 126.292969 292.582031 126.574219 295.890625 129.210938 C 296.292969 129.53125 296.6875 129.914062 296.804688 130.417969 C 296.941406 131.007812 296.65625 131.613281 296.316406 132.113281 C 293.632812 136.066406 288.054688 136.3125 283.546875 137.894531 C 276.246094 140.449219 271.214844 146.972656 265.339844 152.003906 C 264.027344 153.128906 261.773438 154.078125 260.265625 150.90625 Z M 260.265625 150.90625 " fill-opacity="1" fill-rule="nonzero"/><path fill="#d66729" d="M 314.058594 173.144531 C 309.464844 178.128906 304.871094 183.113281 300.273438 188.101562 C 296.558594 192.132812 292.058594 196.5 286.585938 196.164062 C 285.082031 196.070312 283.464844 195.492188 282.742188 194.171875 C 281.945312 192.71875 282.523438 190.835938 283.613281 189.585938 C 284.699219 188.332031 286.203125 187.539062 287.597656 186.644531 C 295.519531 181.542969 300.789062 172.355469 309.734375 169.402344 C 310.621094 169.109375 311.601562 168.890625 312.472656 169.21875 C 313.347656 169.546875 313.984375 170.632812 314.058594 173.144531 Z M 314.058594 173.144531 " fill-opacity="1" fill-rule="nonzero"/><path fill="#dda35c" d="M 143.839844 252.34375 C 144.636719 252.183594 145.433594 252.019531 146.230469 251.855469 " fill-opacity="1" fill-rule="nonzero"/><path fill="#d66729" d="M 163.855469 262.710938 C 169.191406 266.019531 173.542969 270.636719 177.824219 275.203125 C 182.875 280.582031 187.988281 286.050781 191.394531 292.621094 C 194.800781 299.195312 196.308594 307.105469 193.75 314.007812 C 190.878906 321.839844 183.589844 326.980469 176.683594 331.652344 C 170.289062 335.996094 163.863281 340.300781 157.515625 341.09375 C 152.304688 346.929688 143.308594 348.363281 135.882812 345.980469 C 132.007812 344.742188 128.511719 342.621094 125.417969 339.929688 C 122.589844 337.46875 120.097656 334.578125 117.984375 331.484375 C 108.851562 318.164062 105.867188 300.191406 112.582031 285.488281 C 115.628906 278.820312 120.664062 272.042969 118.949219 264.894531 C 118.332031 262.324219 117.003906 259.066406 119.070312 257.417969 C 121.898438 255.066406 125.214844 259.539062 128.324219 261.480469 C 133.085938 264.386719 138.765625 261.09375 144.285156 259.398438 C 144.839844 259.265625 145.398438 259.097656 145.953125 258.964844 C 152.03125 257.519531 158.523438 259.402344 163.855469 262.710938 Z M 163.855469 262.710938 " fill-opacity="1" fill-rule="nonzero"/><path fill="#dda35c" d="M 163.855469 262.710938 C 169.191406 266.019531 173.542969 270.636719 177.824219 275.203125 C 182.875 280.582031 187.988281 286.050781 191.394531 292.621094 C 194.800781 299.195312 196.308594 307.105469 193.75 314.007812 C 190.878906 321.839844 183.589844 326.980469 176.683594 331.652344 C 170.289062 335.996094 163.863281 340.300781 157.515625 341.09375 C 152.304688 346.929688 143.308594 348.363281 135.882812 345.980469 C 132.007812 344.742188 128.511719 342.621094 125.417969 339.929688 C 132.667969 343.339844 142.933594 341.332031 145.890625 333.894531 C 147.914062 328.753906 145.996094 323.003906 144.082031 317.867188 C 146.285156 321.996094 148.710938 326.355469 152.84375 328.507812 C 160.484375 332.480469 170.089844 326.648438 173.925781 318.945312 C 178.335938 310.089844 177.558594 299.277344 173.558594 290.214844 C 169.5625 281.15625 162.683594 273.640625 155.253906 267.128906 C 151.898438 264.199219 148.21875 261.402344 144.285156 259.398438 C 144.839844 259.265625 145.398438 259.097656 145.953125 258.964844 C 152.03125 257.519531 158.523438 259.402344 163.855469 262.710938 Z M 163.855469 262.710938 " fill-opacity="1" fill-rule="nonzero"/><path fill="#dda35c" d="M 114.1875 288.332031 C 115.441406 286.441406 117.957031 285.667969 120.195312 286.027344 C 122.433594 286.382812 124.414062 287.699219 126.0625 289.257812 C 132.1875 295.035156 134.410156 304.054688 140.523438 309.847656 C 141.367188 309.089844 140.816406 307.703125 140.214844 306.738281 C 135.722656 299.492188 131.226562 292.242188 126.730469 284.996094 C 126.125 284.019531 125.503906 282.992188 125.410156 281.847656 C 125.324219 280.792969 125.695312 279.765625 126.003906 278.75 C 126.445312 277.300781 126.769531 275.8125 126.972656 274.308594 C 127.15625 272.929688 127.03125 271.179688 125.75 270.640625 C 124.425781 270.085938 122.996094 271.40625 122.632812 272.792969 C 122.273438 274.179688 122.539062 275.660156 122.265625 277.066406 C 121.6875 280.042969 118.925781 281.992188 116.519531 283.832031 C 114.972656 285.015625 113.328125 286.703125 114.1875 288.332031 Z M 114.1875 288.332031 " fill-opacity="1" fill-rule="nonzero"/><path fill="#d66729" d="M 153.121094 275.316406 C 161.46875 281.976562 167 292.058594 168.128906 302.679688 C 168.476562 305.933594 168.34375 309.488281 166.378906 312.109375 C 165.976562 312.644531 165.46875 313.148438 164.820312 313.304688 C 163.542969 313.609375 162.378906 312.464844 161.753906 311.308594 C 159.394531 306.929688 160.628906 301.507812 159.472656 296.667969 C 158.167969 291.214844 153.972656 286.992188 151.304688 282.058594 C 149.949219 279.546875 149.125 276.085938 153.121094 275.316406 Z M 153.121094 275.316406 " fill-opacity="1" fill-rule="nonzero"/><path fill="#d66729" d="M 117.117188 317.050781 C 118.773438 321.375 121.113281 325.4375 124.015625 329.046875 C 125.703125 331.148438 127.636719 333.132812 130.046875 334.339844 C 131.675781 335.15625 133.90625 335.480469 135.121094 334.121094 C 135.96875 333.167969 135.980469 331.710938 135.566406 330.507812 C 134.339844 326.9375 130.355469 325.3125 127.289062 323.113281 C 125.25 321.652344 123.5 319.789062 122.171875 317.660156 C 121.535156 316.640625 120.96875 315.53125 120.019531 314.792969 C 119.070312 314.054688 117.585938 313.820312 117.117188 317.050781 Z M 117.117188 317.050781 " fill-opacity="1" fill-rule="nonzero"/><path fill="#d66729" d="M 301.433594 238.25 C 300.828125 243.488281 299.023438 248.941406 294.910156 252.253906 C 288.113281 257.734375 278.105469 255.488281 269.667969 257.699219 C 263.535156 259.328125 258.242188 263.304688 252.082031 264.691406 C 244.828125 266.277344 236.824219 263.832031 231.71875 258.457031 C 228.769531 255.347656 226.808594 251.421875 225.085938 247.46875 C 222.804688 242.324219 220.859375 237.066406 218.949219 231.808594 C 217.371094 227.59375 215.820312 223.339844 215.328125 218.855469 C 214.644531 211.847656 216.742188 204.71875 220.773438 198.902344 C 221.066406 198.414062 221.390625 197.921875 221.757812 197.457031 C 226.386719 191.394531 232.996094 186.988281 240.15625 184.328125 C 240.15625 183.421875 241.25 181.441406 243.015625 180.117188 C 244.742188 178.761719 247.335938 178.246094 249.160156 179.5 C 250.523438 180.421875 251.25 182.152344 252.648438 183.035156 C 254.339844 184.058594 256.523438 183.628906 258.492188 183.429688 C 266.265625 182.691406 273.722656 186.707031 279.8125 191.578125 C 284.324219 195.203125 288.429688 199.507812 291.785156 204.28125 C 298.855469 214.207031 302.847656 226.207031 301.433594 238.25 Z M 301.433594 238.25 " fill-opacity="1" fill-rule="nonzero"/><path fill="#dda35c" d="M 301.433594 238.25 C 300.828125 243.488281 299.023438 248.941406 294.910156 252.253906 C 288.113281 257.734375 278.105469 255.488281 269.667969 257.699219 C 263.535156 259.328125 258.242188 263.304688 252.082031 264.691406 C 244.828125 266.277344 236.824219 263.832031 231.71875 258.457031 C 228.769531 255.347656 226.808594 251.421875 225.085938 247.46875 C 222.804688 242.324219 220.859375 237.066406 218.949219 231.808594 C 217.371094 227.59375 215.820312 223.339844 215.328125 218.855469 C 214.644531 211.847656 216.742188 204.71875 220.773438 198.902344 C 220.605469 199.269531 220.507812 199.632812 220.417969 200.027344 C 219.71875 203.007812 219.90625 206.09375 220.257812 209.089844 C 221.730469 220.722656 226.109375 231.804688 231.1875 242.347656 C 233.070312 246.179688 235.0625 250.03125 238.070312 253.066406 C 241.078125 256.066406 245.304688 258.152344 249.511719 257.695312 C 255.71875 257 260.417969 251.207031 266.609375 250.410156 C 269.914062 249.988281 273.253906 251.0625 276.585938 251.195312 C 280.582031 251.316406 284.714844 249.925781 287.484375 247.046875 C 291.148438 243.160156 291.84375 237.457031 292.300781 232.164062 C 293.0625 222.886719 293.515625 213.367188 291.785156 204.28125 C 298.855469 214.207031 302.847656 226.207031 301.433594 238.25 Z M 301.433594 238.25 " fill-opacity="1" fill-rule="nonzero"/><path fill="#dda35c" d="M 255.023438 221.933594 C 252.699219 216.257812 250.347656 210.464844 249.890625 204.351562 C 249.433594 198.234375 251.175781 191.632812 255.851562 187.664062 C 256.160156 187.402344 256.503906 187.113281 256.554688 186.710938 C 256.609375 186.324219 256.355469 185.945312 256.023438 185.734375 C 254.941406 185.042969 253.546875 185.902344 252.644531 186.8125 C 251.738281 187.722656 250.683594 188.8125 249.417969 188.601562 C 248.980469 188.527344 248.582031 188.300781 248.152344 188.183594 C 247.316406 187.964844 246.4375 188.191406 245.605469 188.421875 C 244.335938 188.773438 243.066406 189.121094 241.796875 189.472656 C 241.328125 189.597656 240.839844 189.742188 240.503906 190.085938 C 239.78125 190.828125 240.101562 192.050781 240.476562 193.015625 C 244.667969 203.796875 249.789062 214.214844 255.023438 221.933594 Z M 255.023438 221.933594 " fill-opacity="1" fill-rule="nonzero"/><path fill="#d66729" d="M 233.226562 234.882812 C 231.585938 229.199219 228.773438 223.914062 226.988281 218.273438 C 225.207031 212.628906 224.542969 206.265625 227.15625 200.957031 C 227.515625 200.230469 228.039062 199.453125 228.84375 199.335938 C 229.691406 199.207031 230.449219 199.878906 230.925781 200.589844 C 232.957031 203.628906 232.128906 207.636719 232.132812 211.289062 C 232.144531 219.46875 236.671875 226.902344 238.59375 234.855469 C 238.8125 235.765625 238.976562 236.796875 238.460938 237.574219 C 237.945312 238.355469 234.554688 239.484375 233.226562 234.882812 Z M 233.226562 234.882812 " fill-opacity="1" fill-rule="nonzero"/><path fill="#d66729" d="M 285.621094 206.945312 C 286.976562 213.390625 287.476562 220.019531 287.105469 226.597656 C 286.820312 231.632812 285.96875 236.808594 283.222656 241.039062 C 282.09375 242.785156 280.136719 244.488281 278.160156 243.84375 C 275.832031 243.082031 275.605469 239.921875 275.820312 237.484375 C 276.300781 231.945312 276.785156 226.40625 277.269531 220.867188 C 277.542969 217.714844 277.820312 214.558594 278.09375 211.40625 C 278.257812 209.558594 278.457031 207.605469 279.558594 206.109375 C 280.660156 204.617188 284.792969 202.996094 285.621094 206.945312 Z M 285.621094 206.945312 " fill-opacity="1" fill-rule="nonzero"/></svg>